<svg width="74" height="18" viewBox="0 0 74 18" fill="none" xmlns="http://www.w3.org/2000/svg">
<path d="M72.6172 9.39009H0.702141C0.405124 9.39009 0.165161 9.17009 0.165161 8.89778C0.165161 8.62547 0.405124 8.40547 0.702141 8.40547H71.3201L63.1666 0.930143C62.9568 0.737835 62.9568 0.425528 63.1666 0.23322C63.3763 0.0409123 63.7169 0.0409123 63.9267 0.23322L72.9981 8.55009C73.1525 8.69163 73.1978 8.9024 73.1139 9.08701C73.03 9.27009 72.8337 9.39009 72.6172 9.39009Z" fill="white"/>
<path d="M63.4979 17.877C63.3603 17.877 63.2227 17.8293 63.1187 17.7324C62.9089 17.5401 62.9089 17.2278 63.1187 17.0355L72.238 8.54855C72.4477 8.35624 72.7884 8.35624 72.9981 8.54855C73.2079 8.74086 73.2079 9.05316 72.9981 9.24547L63.8788 17.7324C63.7731 17.8293 63.6355 17.877 63.4979 17.877Z" fill="white"/>
</svg>
