<svg width="27" height="16" viewBox="0 0 27 16" fill="none" xmlns="http://www.w3.org/2000/svg">
<path d="M25.8675 8.73529H0.798074C0.571151 8.73529 0.387817 8.55196 0.387817 8.32504C0.387817 8.09811 0.571151 7.91478 0.798074 7.91478H24.8765L18.6471 1.68534C18.4868 1.52508 18.4868 1.26482 18.6471 1.10457C18.8073 0.944311 19.0676 0.944311 19.2278 1.10457L26.1585 8.03529C26.2765 8.15324 26.3111 8.32888 26.247 8.48273C26.1829 8.63529 26.0329 8.73529 25.8675 8.73529Z" fill="#002E62"/>
<path d="M18.9002 15.8077C18.7951 15.8077 18.6899 15.768 18.6105 15.6872C18.4502 15.527 18.4502 15.2667 18.6105 15.1065L25.5778 8.03401C25.738 7.87375 25.9983 7.87375 26.1585 8.03401C26.3188 8.19426 26.3188 8.45452 26.1585 8.61478L19.1912 15.6872C19.1105 15.768 19.0053 15.8077 18.9002 15.8077Z" fill="#002E62"/>
</svg>
