<svg width="33" height="18" viewBox="0 0 33 18" fill="none" xmlns="http://www.w3.org/2000/svg">
<path d="M31.541 9.48933H1.45764C1.18533 9.48933 0.965332 9.26933 0.965332 8.99703C0.965332 8.72472 1.18533 8.50472 1.45764 8.50472H30.3517L22.8764 1.02939C22.6841 0.837078 22.6841 0.524771 22.8764 0.332463C23.0687 0.140155 23.381 0.140155 23.5733 0.332463L31.8902 8.64933C32.0317 8.79087 32.0733 9.00164 31.9964 9.18626C31.9194 9.36933 31.7394 9.48933 31.541 9.48933Z" fill="#002E62"/>
<path d="M23.1802 17.9763C23.054 17.9763 22.9279 17.9286 22.8325 17.8317C22.6402 17.6394 22.6402 17.327 22.8325 17.1347L31.1933 8.64779C31.3856 8.45548 31.6979 8.45548 31.8902 8.64779C32.0825 8.8401 32.0825 9.15241 31.8902 9.34471L23.5294 17.8317C23.4325 17.9286 23.3063 17.9763 23.1802 17.9763Z" fill="#002E62"/>
</svg>
