<svg width="91" height="70" viewBox="0 0 91 70" fill="none" xmlns="http://www.w3.org/2000/svg">
<g clip-path="url(#clip0_127:2498)">
<path d="M45.0945 46.595C44.6383 46.595 44.2666 46.9635 44.2666 47.4158V63.1791C44.2666 63.6314 44.6383 63.9999 45.0945 63.9999C45.5507 63.9999 45.9224 63.6314 45.9224 63.1791V47.4158C45.9224 46.9635 45.5507 46.595 45.0945 46.595Z" fill="#AFA178"/>
<path d="M50.4856 46.595C50.0294 46.595 49.6577 46.9635 49.6577 47.4158V63.1791C49.6577 63.6314 50.0294 63.9999 50.4856 63.9999C50.9418 63.9999 51.3135 63.6314 51.3135 63.1791V47.4158C51.3135 46.9635 50.9418 46.595 50.4856 46.595Z" fill="#AFA178"/>
<path d="M55.8577 46.595C55.4015 46.595 55.0298 46.9635 55.0298 47.4158V63.1791C55.0298 63.6314 55.4015 63.9999 55.8577 63.9999C56.3138 63.9999 56.6856 63.6314 56.6856 63.1791V47.4158C56.6856 46.9635 56.3138 46.595 55.8577 46.595Z" fill="#AFA178"/>
<path d="M61.2471 46.595C60.7909 46.595 60.4192 46.9635 60.4192 47.4158V63.1791C60.4192 63.6314 60.7909 63.9999 61.2471 63.9999C61.7033 63.9999 62.075 63.6314 62.075 63.1791V47.4158C62.075 46.9635 61.7033 46.595 61.2471 46.595Z" fill="#AFA178"/>
<path d="M66.6364 46.595C66.1802 46.595 65.8085 46.9635 65.8085 47.4158V63.1791C65.8085 63.6314 66.1802 63.9999 66.6364 63.9999C67.0925 63.9999 67.4642 63.6314 67.4642 63.1791V47.4158C67.4642 46.9635 67.0925 46.595 66.6364 46.595Z" fill="#AFA178"/>
<path d="M72.0103 46.595C71.5541 46.595 71.1824 46.9635 71.1824 47.4158V63.1791C71.1824 63.6314 71.5541 63.9999 72.0103 63.9999C72.4664 63.9999 72.8381 63.6314 72.8381 63.1791V47.4158C72.8381 46.9635 72.4664 46.595 72.0103 46.595Z" fill="#AFA178"/>
<path d="M77.3997 46.595C76.9435 46.595 76.5718 46.9635 76.5718 47.4158V63.1791C76.5718 63.6314 76.9435 63.9999 77.3997 63.9999C77.8558 63.9999 78.2275 63.6314 78.2275 63.1791V47.4158C78.2275 46.9635 77.8558 46.595 77.3997 46.595Z" fill="#AFA178"/>
<path d="M82.7717 46.595C82.3155 46.595 81.9438 46.9635 81.9438 47.4158V63.1791C81.9438 63.6314 82.3155 63.9999 82.7717 63.9999C83.2279 63.9999 83.5996 63.6314 83.5996 63.1791V47.4158C83.5996 46.9635 83.2279 46.595 82.7717 46.595Z" fill="#AFA178"/>
<path d="M90.1729 67.4508H88.9057V43.1609H90.1729C90.6291 43.1609 91.0008 42.7924 91.0008 42.3401C91.0008 41.8878 90.6291 41.5192 90.1729 41.5192H37.7119C37.2557 41.5192 36.884 41.8878 36.884 42.3401C36.884 42.7924 37.2557 43.1609 37.7119 43.1609H38.9791V47.5498L38.8439 47.4661C37.3571 46.4945 35.752 45.6736 34.0962 45.0371L30.886 43.7975L33.4373 41.5025C35.8196 39.3583 37.2726 36.4435 37.526 33.2942L37.5936 32.5069L38.1681 31.954C42.6285 27.6321 48.542 25.2701 54.7934 25.2701C59.6931 25.2701 64.407 26.7275 68.4113 29.5083C68.5802 29.6256 68.7323 29.6423 68.8337 29.6423C69.0871 29.6423 69.3068 29.5251 69.4588 29.324C69.5771 29.1565 69.6109 28.9555 69.5771 28.7712C69.5433 28.5702 69.425 28.4027 69.273 28.2854C67.6172 27.1463 65.8432 26.1915 63.9677 25.4712L60.7576 24.2315L63.3088 21.9366C65.9276 19.5746 67.4313 16.2075 67.4313 12.7064C67.4313 5.82149 61.7882 0.22644 54.8441 0.22644C47.9 0.22644 42.2568 5.82149 42.2568 12.7064C42.2568 16.1908 43.7436 19.5411 46.3625 21.9031L48.9137 24.2148L45.7035 25.4377C45.3149 25.5884 44.9432 25.7392 44.5884 25.89C42.9326 26.6103 41.3614 27.5149 39.9083 28.5535L37.695 30.1449L36.6813 27.6321C34.7552 22.8747 30.1595 19.7924 25.0064 19.7924C18.0622 19.7924 12.4191 25.3874 12.4191 32.2723C12.4191 35.7399 13.9059 39.0902 16.4909 41.4522L19.0422 43.7807L15.7982 44.9868C8.43172 47.7173 2.63651 53.6307 0.321806 60.7669C-0.320229 62.7603 0.0176841 64.871 1.26796 66.5629C2.51824 68.2549 4.42745 69.2264 6.53941 69.2264H31.6295C32.0518 69.2264 32.3898 68.8914 32.3898 68.4726C32.3898 68.0538 32.0518 67.7188 31.6295 67.7188H6.52251C4.90053 67.7188 3.43061 66.965 2.46755 65.6751C1.5045 64.3685 1.25107 62.7603 1.74104 61.2192C4.86674 51.5702 14.3959 44.8193 24.9219 44.8193C29.8216 44.8193 34.5355 46.2767 38.5398 49.0575C38.6412 49.1245 38.7594 49.1747 38.8946 49.1915H38.9622V67.4508H37.695C37.2388 67.4508 36.8671 67.8193 36.8671 68.2716C36.8671 68.7239 37.2388 69.0924 37.695 69.0924H90.156C90.6122 69.0924 90.9839 68.7239 90.9839 68.2716C90.9839 67.8193 90.6291 67.4508 90.1729 67.4508ZM43.7774 12.6897C43.7774 6.64232 48.7448 1.70058 54.861 1.70058C60.9772 1.70058 65.9445 6.62557 65.9445 12.6897C65.9445 18.7538 60.9603 23.662 54.8441 23.662C48.7279 23.662 43.7774 18.737 43.7774 12.6897ZM13.9228 32.2556C13.9228 26.2082 18.8901 21.2665 25.0064 21.2665C31.1226 21.2665 36.0899 26.1915 36.0899 32.2556C36.0899 38.3197 31.1226 43.2446 25.0064 43.2446C18.8901 43.2446 13.9228 38.3197 13.9228 32.2556ZM40.6348 67.4508V43.1609H87.2331V67.4508H40.6348Z" fill="#AFA178"/>
<circle cx="55.5" cy="33.9016" r="4" fill="#007EEA"/>
</g>
<defs>
<clipPath id="clip0_127:2498">
<rect width="91" height="69" fill="white" transform="translate(0 0.209717)"/>
</clipPath>
</defs>
</svg>
