<svg width="24" height="25" viewBox="0 0 24 25" fill="none" xmlns="http://www.w3.org/2000/svg">
<g clip-path="url(#clip0_127:2715)">
<path d="M23.7013 2.4677H14.5255L2.91222 0.96258C2.83605 0.950867 2.75402 0.974293 2.68957 1.02114C2.62512 1.068 2.5841 1.14413 2.57824 1.22027L0.000115664 21.9758C-0.0174625 22.1397 0.0938657 22.2861 0.252069 22.3096L5.22668 23.0534V24.6639C5.22668 24.8279 5.36144 24.9626 5.52551 24.9626H23.6954C23.8595 24.9626 23.9943 24.8279 23.9943 24.6639V2.76639C24.0001 2.6024 23.8653 2.4677 23.7013 2.4677ZM5.22668 2.76639V22.4384L0.632928 21.7532L3.13488 1.60094L9.85558 2.47356H5.52551C5.36144 2.4677 5.22668 2.6024 5.22668 2.76639ZM23.4025 24.3594H5.83019V3.07093H23.4025V24.3594Z" fill="#AFA178"/>
<path d="M9.20575 7.47554H20.028C20.1921 7.47554 20.3268 7.34084 20.3268 7.17686C20.3268 7.01287 20.1921 6.87817 20.028 6.87817H9.20575C9.04169 6.87817 8.90692 7.01287 8.90692 7.17686C8.90106 7.34084 9.03583 7.47554 9.20575 7.47554Z" fill="#AFA178"/>
<path d="M9.20575 10.7435H20.028C20.1921 10.7435 20.3268 10.6088 20.3268 10.4448C20.3268 10.2808 20.1921 10.1461 20.028 10.1461H9.20575C9.04169 10.1461 8.90692 10.2808 8.90692 10.4448C8.90106 10.6088 9.03583 10.7435 9.20575 10.7435Z" fill="#AFA178"/>
<path d="M9.20557 14.0173H20.0278C20.1919 14.0173 20.3267 13.8826 20.3267 13.7186C20.3267 13.5546 20.1919 13.4199 20.0278 13.4199H9.20557C9.0415 13.4199 8.90674 13.5546 8.90674 13.7186C8.90674 13.8826 9.03564 14.0173 9.20557 14.0173Z" fill="#AFA178"/>
<path d="M9.20575 17.2851H20.028C20.1921 17.2851 20.3268 17.1504 20.3268 16.9864C20.3268 16.8224 20.1921 16.6877 20.028 16.6877H9.20575C9.04169 16.6877 8.90692 16.8224 8.90692 16.9864C8.90106 17.1504 9.03583 17.2851 9.20575 17.2851Z" fill="#AFA178"/>
<path d="M9.20557 20.559H20.0278C20.1919 20.559 20.3267 20.4243 20.3267 20.2604C20.3267 20.0964 20.1919 19.9617 20.0278 19.9617H9.20557C9.0415 19.9617 8.90674 20.0964 8.90674 20.2604C8.90674 20.4243 9.03564 20.559 9.20557 20.559Z" fill="#AFA178"/>
<circle cx="12" cy="12.9631" r="2" fill="#007EEA"/>
</g>
<defs>
<clipPath id="clip0_127:2715">
<rect width="24" height="24" fill="white" transform="translate(0 0.963135)"/>
</clipPath>
</defs>
</svg>
