<svg width="25" height="18" viewBox="0 0 25 18" fill="none" xmlns="http://www.w3.org/2000/svg">
<path d="M0.558594 0.190918V1.10732V16.4745V17.3909H24.5586V16.4745V1.10732V0.190918H0.558594ZM15.2086 9.01652L13.0302 11.2053C12.7654 11.4513 12.351 11.4509 12.0974 11.2157L9.90819 9.01652L9.92739 8.99772L2.01739 0.990918H23.105L15.1894 8.99812L15.2086 9.01652ZM8.76819 9.00412L1.35859 16.1329V1.56012L8.76819 9.00412ZM9.33219 9.57092L11.5414 11.7905C11.825 12.0549 12.189 12.1877 12.5546 12.1877C12.9238 12.1877 13.2946 12.0521 13.587 11.7797L15.7854 9.57092L23.0802 16.5909H2.03299L9.33219 9.57092ZM16.3494 9.00452L23.7586 1.55972V16.1329L16.3494 9.00452Z" fill="white"/>
</svg>
