<svg width="20" height="16" viewBox="0 0 20 16" xmlns="http://www.w3.org/2000/svg">
<path d="M18.8193 5.45312C18.9589 5.33203 19.1666 5.44531 19.1666 5.63672V13.625C19.1666 14.6602 18.3967 15.5 17.4478 15.5H2.552C1.60311 15.5 0.833252 14.6602 0.833252 13.625V5.64062C0.833252 5.44531 1.03735 5.33594 1.18058 5.45703C1.98267 6.13672 3.04614 7 6.69849 9.89453C7.45402 10.4961 8.72876 11.7617 9.99992 11.7539C11.2782 11.7656 12.578 10.4727 13.3049 9.89453C16.9573 7 18.0172 6.13281 18.8193 5.45312ZM9.99992 10.5C10.8306 10.5156 12.0266 9.35938 12.6282 8.88281C17.3798 5.12109 17.7415 4.79297 18.8372 3.85547C19.0448 3.67969 19.1666 3.40625 19.1666 3.11719V2.375C19.1666 1.33984 18.3967 0.5 17.4478 0.5H2.552C1.60311 0.5 0.833252 1.33984 0.833252 2.375V3.11719C0.833252 3.40625 0.954997 3.67578 1.16268 3.85547C2.25838 4.78906 2.62004 5.12109 7.37166 8.88281C7.97323 9.35938 9.16919 10.5156 9.99992 10.5Z"/>
</svg>
