<svg width="20" height="25" viewBox="0 0 20 25" fill="none" xmlns="http://www.w3.org/2000/svg">
<path d="M11.621 6.45264V0.0776367H1.50211C0.829204 0.0776367 0.287842 0.579199 0.287842 1.20264V22.9526C0.287842 23.5761 0.829204 24.0776 1.50211 24.0776H18.5019C19.1748 24.0776 19.7162 23.5761 19.7162 22.9526V7.57764H12.8353C12.1675 7.57764 11.621 7.07139 11.621 6.45264ZM14.8591 17.5151C14.8591 17.8245 14.5859 18.0776 14.252 18.0776H5.75206C5.41814 18.0776 5.14493 17.8245 5.14493 17.5151V17.1401C5.14493 16.8308 5.41814 16.5776 5.75206 16.5776H14.252C14.5859 16.5776 14.8591 16.8308 14.8591 17.1401V17.5151ZM14.8591 14.5151C14.8591 14.8245 14.5859 15.0776 14.252 15.0776H5.75206C5.41814 15.0776 5.14493 14.8245 5.14493 14.5151V14.1401C5.14493 13.8308 5.41814 13.5776 5.75206 13.5776H14.252C14.5859 13.5776 14.8591 13.8308 14.8591 14.1401V14.5151ZM14.8591 11.1401V11.5151C14.8591 11.8245 14.5859 12.0776 14.252 12.0776H5.75206C5.41814 12.0776 5.14493 11.8245 5.14493 11.5151V11.1401C5.14493 10.8308 5.41814 10.5776 5.75206 10.5776H14.252C14.5859 10.5776 14.8591 10.8308 14.8591 11.1401ZM19.7162 5.7917V6.07764H13.2401V0.0776367H13.5487C13.8725 0.0776367 14.1811 0.194824 14.4088 0.405762L19.362 4.99951C19.5897 5.21045 19.7162 5.49639 19.7162 5.7917Z" fill="#0369C7"/>
</svg>
