<svg width="71" height="82" viewBox="0 0 71 82" fill="none" xmlns="http://www.w3.org/2000/svg">
<g clip-path="url(#clip0_127:2724)">
<path d="M17.1533 62.9216C22.3076 67.1695 28.8103 69.5067 35.4836 69.5067H35.5007C37.6341 69.5067 39.7504 69.2678 41.8326 68.8072C42.43 68.6707 43.0615 68.5001 43.8295 68.2783C49.291 66.6406 54.087 63.4334 57.7223 59.049C62.6206 53.1122 64.9076 45.6229 64.1567 37.9631C63.4228 30.3032 59.7362 23.394 53.7968 18.4978C48.6596 14.2499 42.1569 11.9127 35.4836 11.9127C33.8963 11.9127 32.292 12.0492 30.7047 12.3051C29.8002 12.4586 28.8956 12.6634 27.9228 12.9192C27.6668 12.9875 27.4108 13.0728 27.1377 13.141C21.6761 14.7958 16.8802 17.986 13.2449 22.3704C8.36364 28.3243 6.07662 35.7965 6.81052 43.4563C7.54441 51.1162 11.2139 58.0254 17.1533 62.9216ZM55.5718 59.4755C55.0086 60.0726 54.3942 60.6697 53.7456 61.2497C53.7115 61.2838 53.6773 61.3009 53.6603 61.335L53.6432 61.3691L53.6091 61.3862C52.9776 61.9321 52.312 62.478 51.5951 62.9898L51.5098 63.058C51.4586 63.0922 51.4074 63.1433 51.3391 63.1775C50.6906 63.6381 49.9737 64.0816 49.2398 64.5081L49.1204 64.5764C49.0521 64.6105 48.9838 64.6617 48.9156 64.6958C48.1987 65.0882 47.4648 65.4635 46.7139 65.8047L46.3555 65.9582C46.0141 66.0947 45.6898 66.2312 45.3485 66.3506C45.212 66.4018 45.0584 66.4529 44.9218 66.5041L41.7302 67.4765L43.181 66.4018L44.1709 65.3952C46.5944 62.768 48.4206 59.7314 49.5983 56.3535L49.8201 55.7053L50.4687 55.9441C52.2266 56.5753 53.9333 57.3601 55.5377 58.3154L56.2545 58.7419L55.5718 59.4755ZM62.9278 42.0745C62.6547 47.5848 60.7603 52.8222 57.4321 57.2236L57.2273 57.4965H56.6983L56.5276 57.3942C54.7355 56.3024 52.824 55.3811 50.8442 54.6817L50.2468 54.4599L50.4175 53.8457C51.5269 50.0073 52.1242 46.0153 52.1925 42.0233L52.2096 41.358H62.962L62.9278 42.0745ZM57.0737 23.684L57.4492 24.1787C60.7603 28.5802 62.6547 33.8175 62.9278 39.3278L62.962 40.0444H52.2096L52.1925 39.379C52.1071 35.387 51.5098 31.395 50.4175 27.5566L50.2468 26.9424L50.8442 26.7206C52.824 26.0212 54.7355 25.1 56.5276 24.0081L57.0737 23.684ZM44.6487 14.8299L45.1608 15.0176C45.5533 15.1541 45.9459 15.3076 46.3384 15.4782L46.6968 15.6318C47.4648 15.973 48.1987 16.3483 48.8814 16.7236C48.9497 16.7577 49.018 16.8089 49.0862 16.843L49.2057 16.9112C49.9396 17.3377 50.6394 17.7813 51.305 18.2419C51.3562 18.276 51.4245 18.3272 51.4757 18.3613C51.5098 18.3784 51.5439 18.4125 51.561 18.4296C52.3632 19.0096 53.0117 19.5214 53.5749 20.0332C53.6261 20.0673 53.6603 20.1185 53.7115 20.1526L53.7285 20.1697C54.4454 20.8009 55.0769 21.415 55.6742 22.0633L56.2545 22.6775L55.5206 23.104C53.9163 24.0422 52.2096 24.8441 50.4687 25.4753L49.8201 25.7141L49.5983 25.0658C48.4206 21.688 46.5944 18.6513 44.1709 16.0241L41.7473 14.0452L44.6487 14.8299ZM36.1492 13.2263L36.9514 13.3628C41.5937 14.1305 45.724 18.5149 48.3182 25.39L48.5742 26.0894L47.8574 26.2941C44.2733 27.2836 40.5697 27.8295 36.849 27.9148L36.1492 27.9319V13.2263ZM36.1492 29.2796L36.8148 29.2626C40.7062 29.1773 44.5805 28.5972 48.3353 27.5225L48.9838 27.3348L49.1716 27.9831C50.2297 31.685 50.793 35.5064 50.8783 39.3449L50.8954 40.0444H36.1492V29.2796ZM36.1492 41.358H50.8954L50.8783 42.0574C50.793 45.8959 50.2127 49.7173 49.1716 53.4192L48.9838 54.0675L48.3353 53.8799C44.5805 52.8392 40.7233 52.2592 36.8319 52.1739L36.1663 52.1568V41.358H36.1492ZM36.1492 53.4875L36.849 53.5045C40.5697 53.5898 44.2733 54.1358 47.8574 55.1252L48.3523 55.2617V55.91L48.3011 56.0294C45.7069 62.9045 41.5766 67.2889 36.9343 68.0566L36.1322 68.193V53.4875H36.1492ZM34.835 68.176L34.0329 68.0395C29.3906 67.2718 25.2603 62.8874 22.666 56.0123L22.41 55.3129L23.1269 55.1082C26.711 54.1187 30.4146 53.5728 34.1353 53.4875L34.835 53.4704V68.176ZM34.835 52.1739L34.1694 52.1909C30.2781 52.2762 26.4038 52.8392 22.649 53.8969L22.0004 54.0846L21.8127 53.4363C20.7545 49.7343 20.1913 45.9129 20.106 42.0745L20.0889 41.375H34.835V52.1739ZM34.835 40.0444H20.0889L20.106 39.3449C20.1913 35.5064 20.7716 31.685 21.8127 27.9831L22.0004 27.3348L22.649 27.5225C26.4038 28.5802 30.261 29.1602 34.1694 29.2626L34.835 29.2796V40.0444ZM34.0499 13.3628L34.8521 13.2263V27.9148L34.1523 27.8978C30.4317 27.8125 26.7281 27.2666 23.1439 26.2771L22.4271 26.0724L22.6831 25.3729C25.2603 18.5149 29.4076 14.1305 34.0499 13.3628ZM15.3442 22.0121C15.9074 21.398 16.556 20.7838 17.2386 20.1697L17.2898 20.1185C17.341 20.0844 17.3752 20.0332 17.3922 20.0161C18.0067 19.4873 18.6552 18.9584 19.4062 18.4296C19.4403 18.4125 19.4574 18.3954 19.4915 18.3784C19.5598 18.3272 19.6281 18.276 19.6793 18.2419C20.3449 17.7642 21.0447 17.3207 21.7615 16.9112C21.7956 16.8942 21.8298 16.8771 21.8639 16.8601C21.9492 16.8089 22.0346 16.7577 22.1199 16.7236C22.8197 16.3312 23.5535 15.9559 24.3045 15.6318L24.6629 15.4782C24.9872 15.3417 25.3285 15.2223 25.6528 15.0858C25.8064 15.0347 25.943 14.9835 26.0966 14.9323L29.5612 13.8064L27.0182 15.8365L26.8305 16.0412C24.4069 18.6684 22.5807 21.7051 21.4031 25.0829L21.1812 25.7312L20.5326 25.4923C18.7747 24.8611 17.068 24.0764 15.4636 23.121L14.6273 22.6263L15.3442 22.0121ZM8.0735 39.3278C8.34658 33.8175 10.241 28.5802 13.5521 24.1787L13.9276 23.684L14.4567 24.0081C16.2487 25.1 18.1603 26.0212 20.1401 26.7206L20.7374 26.9424L20.5668 27.5566C19.4574 31.395 18.86 35.387 18.7918 39.379L18.7747 40.0444H8.0223L8.0735 39.3278ZM13.9276 57.7183L13.5521 57.2236C10.241 52.8222 8.34658 47.5848 8.0735 42.0745L8.03936 41.358H18.7918L18.8088 42.0233C18.8942 46.0153 19.4915 50.0073 20.5838 53.8457L20.7545 54.4599L20.1572 54.6817C18.1773 55.3811 16.2658 56.3024 14.4737 57.3942L13.9276 57.7183ZM15.4466 58.3154C17.0509 57.3771 18.7576 56.5753 20.5156 55.9441L21.1641 55.7053L21.386 56.3535C22.5636 59.7314 24.3898 62.768 26.8134 65.3952L28.0935 66.5894L29.8002 67.6642L25.8235 66.4018C25.431 66.2653 25.0384 66.1118 24.6629 65.9582C24.5435 65.907 24.4069 65.8559 24.2874 65.8047C23.5365 65.4635 22.7855 65.1052 22.0858 64.7128C22.0175 64.6787 21.9663 64.6446 21.898 64.6105C21.8639 64.5934 21.8127 64.5593 21.7615 64.5422C21.0276 64.1328 20.3278 63.6722 19.6451 63.1945C19.5939 63.1604 19.5427 63.1263 19.4915 63.0922L19.4062 63.0239C18.7064 62.5121 18.0237 61.9662 17.3581 61.4032L17.3069 61.3691C17.2898 61.3521 17.2728 61.3521 17.2557 61.3179L17.2216 61.2838C16.5218 60.6697 15.8733 60.0214 15.2759 59.3902L14.6956 58.776L15.4466 58.3154Z" fill="#AFA178"/>
<path d="M69.6853 41.3921C69.2928 59.8678 54.0346 74.8634 35.4995 74.8805H15.6332L19.7122 70.8032L18.7906 69.8819L13.1243 75.5458L18.7906 81.2097L19.7122 80.2884L15.6332 76.2111H35.4995C44.9719 76.1941 53.8981 72.5092 60.5885 65.8047C67.1252 59.2708 70.8118 50.6214 70.9995 41.4092H69.6853V41.3921Z" fill="#AFA178"/>
<path d="M35.5 6.53891H52.6697L48.5906 10.6162L49.5123 11.5374L55.1786 5.87358L49.5293 0.209717L48.6077 1.13095L52.6868 5.20824H35.5C26.0276 5.2253 17.1014 8.91022 10.4111 15.6147C3.87428 22.1486 0.18774 30.798 0 40.0103H1.31418C1.70673 21.5515 16.9649 6.55597 35.5 6.53891Z" fill="#AFA178"/>
<circle cx="35.4863" cy="41.0103" r="4" fill="#007EEA"/>
</g>
<defs>
<clipPath id="clip0_127:2724">
<rect width="71" height="81" fill="white" transform="translate(0 0.209717)"/>
</clipPath>
</defs>
</svg>
