<svg width="91" height="60" viewBox="0 0 91 60" fill="none" xmlns="http://www.w3.org/2000/svg">
<g clip-path="url(#clip0_127:2703)">
<path d="M90.8736 33.1429L77.007 11.4357C76.8625 11.1996 76.5917 11.0542 76.3208 11.0542H60.1972V1.02714C60.1972 0.573017 59.8361 0.209717 59.3847 0.209717H0.8125C0.361111 0.209717 0 0.573017 0 1.02714V50.6358C0 51.09 0.361111 51.4533 0.8125 51.4533H12.3319L12.4403 52.0527C13.1264 56.1943 16.6653 59.1916 20.8361 59.1916C25.0069 59.1916 28.5458 56.1943 29.2319 52.0527L29.3403 51.4533H64.7111L64.8195 52.0527C65.5056 56.1943 69.0444 59.1916 73.2153 59.1916C77.3861 59.1916 80.925 56.1943 81.6111 52.0527L81.7195 51.4533H90.1694C90.6208 51.4533 90.9819 51.09 90.9819 50.6358V33.5789C91 33.4335 90.9639 33.2701 90.8736 33.1429ZM20.8542 57.5567C17.0625 57.5567 13.975 54.4505 13.975 50.6358C13.975 46.8212 17.0625 43.715 20.8542 43.715C24.6458 43.715 27.7333 46.8212 27.7333 50.6358C27.7333 54.4505 24.6458 57.5567 20.8542 57.5567ZM58.5542 6.40399H6.15694V8.05701H58.5361V43.606H32.3556V45.259H58.5542V49.8184H29.3583L29.25 49.219C28.5639 45.0773 25.025 42.0801 20.8542 42.0801C16.6833 42.0801 13.1444 45.0773 12.4583 49.219L12.35 49.8184H1.64306V45.259H9.35278V43.606H1.64306V1.86273H58.5542V6.40399ZM73.2333 57.5567C69.4417 57.5567 66.3542 54.4505 66.3542 50.6358C66.3542 46.8212 69.4417 43.715 73.2333 43.715C77.025 43.715 80.1125 46.8212 80.1125 50.6358C80.1125 54.4505 77.025 57.5567 73.2333 57.5567ZM89.3569 43.606H84.7347V45.259H89.3569V49.8184H81.7375L81.6292 49.219C80.9431 45.0773 77.4042 42.0801 73.2333 42.0801C69.0625 42.0801 65.5236 45.0773 64.8375 49.219L64.7292 49.8184H60.1792V12.7073H75.8695L78.7764 17.2667L87.6958 31.2174H66.3542V18.9197H78.6861V17.2667H65.5417C65.0903 17.2667 64.7292 17.63 64.7292 18.0841V32.0348C64.7292 32.489 65.0903 32.8523 65.5417 32.8523H88.7611L89.375 33.815V43.606H89.3569Z" fill="#AFA178"/>
<path d="M21.6663 49.8184H20.0232V51.4714H21.6663V49.8184Z" fill="#AFA178"/>
<path d="M74.0642 49.8184H72.4211V51.4714H74.0642V49.8184Z" fill="#AFA178"/>
<circle cx="31.5" cy="25.7007" r="4" fill="#007EEA"/>
</g>
<defs>
<clipPath id="clip0_127:2703">
<rect width="91" height="59" fill="white" transform="translate(0 0.209717)"/>
</clipPath>
</defs>
</svg>
