<svg width="24" height="23" viewBox="0 0 24 23" fill="none" xmlns="http://www.w3.org/2000/svg">
<path d="M12.002 0.235352C5.58209 0.235352 0.376953 5.3158 0.376953 11.5778C0.376953 17.8434 5.58209 22.9202 12.002 22.9202C18.4218 22.9202 23.627 17.8434 23.627 11.5778C23.627 5.3158 18.4218 0.235352 12.002 0.235352ZM12.002 5.26627C13.0893 5.26627 13.9707 6.12628 13.9707 7.18717C13.9707 8.24805 13.0893 9.10806 12.002 9.10806C10.9146 9.10806 10.0332 8.24805 10.0332 7.18717C10.0332 6.12628 10.9146 5.26627 12.002 5.26627ZM14.627 16.8831C14.627 17.1862 14.3751 17.4319 14.0645 17.4319H9.93945C9.62881 17.4319 9.37695 17.1862 9.37695 16.8831V15.7855C9.37695 15.4824 9.62881 15.2366 9.93945 15.2366H10.502V12.3096H9.93945C9.62881 12.3096 9.37695 12.0638 9.37695 11.7607V10.6631C9.37695 10.36 9.62881 10.1142 9.93945 10.1142H12.9395C13.2501 10.1142 13.502 10.36 13.502 10.6631V15.2366H14.0645C14.3751 15.2366 14.627 15.4824 14.627 15.7855V16.8831Z" fill="#FE7F7F"/>
</svg>
