<svg width="16" height="16" viewBox="0 0 16 16" xmlns="http://www.w3.org/2000/svg">
<path d="M3.65047 15.7499H0.385156V5.23466H3.65047V15.7499ZM2.01605 3.80028C0.971914 3.80028 0.125 2.93544 0.125 1.8913C0.125 1.38976 0.324236 0.908763 0.678877 0.554121C1.03352 0.19948 1.51452 0.000244141 2.01605 0.000244141C2.51759 0.000244141 2.99859 0.19948 3.35323 0.554121C3.70787 0.908763 3.90711 1.38976 3.90711 1.8913C3.90711 2.93544 3.05984 3.80028 2.01605 3.80028ZM15.8715 15.7499H12.6132V10.6311C12.6132 9.41122 12.5886 7.84677 10.9155 7.84677C9.21781 7.84677 8.95766 9.17216 8.95766 10.5433V15.7499H5.69586V5.23466H8.82758V6.66903H8.87328C9.30922 5.84286 10.3741 4.97099 11.9628 4.97099C15.2675 4.97099 15.875 7.14716 15.875 9.97372V15.7499H15.8715Z"/>
</svg>
