<svg width="75" height="73" viewBox="0 0 75 73" fill="none" xmlns="http://www.w3.org/2000/svg">
<g clip-path="url(#clip0_211:2)">
<path d="M10.7219 24.9016H16.1601C16.7605 24.9016 16.9149 24.4213 16.9149 24.1296C16.9149 23.7522 16.6748 23.3577 16.1601 23.3577H10.7219C10.2931 23.3577 9.94995 23.7008 9.94995 24.1296C9.94995 24.5585 10.2931 24.9016 10.7219 24.9016Z" fill="#AFA178"/>
<path d="M10.7224 20.6471H16.1605C16.6923 20.6471 16.9153 20.2697 16.9153 19.8751C16.9153 19.4977 16.6752 19.1031 16.1605 19.1031H10.7224C10.1905 19.1031 9.96753 19.4806 9.96753 19.8751C9.96753 20.2525 10.1905 20.6471 10.7224 20.6471Z" fill="#AFA178"/>
<path d="M16.1605 52.0067H10.7224C10.1219 52.0067 9.96753 52.4871 9.96753 52.7787C9.96753 53.1561 10.2077 53.5507 10.7224 53.5507H16.1605C16.761 53.5507 16.9153 53.0703 16.9153 52.7787C16.9153 52.4013 16.6752 52.0067 16.1605 52.0067Z" fill="#AFA178"/>
<path d="M10.7224 47.7522C10.1219 47.7522 9.96753 48.2325 9.96753 48.5242C9.96753 48.9016 10.2077 49.2962 10.7224 49.2962H16.1605C16.761 49.2962 16.9153 48.8158 16.9153 48.5242C16.9153 48.1468 16.6752 47.7522 16.1605 47.7522H10.7224Z" fill="#AFA178"/>
<path d="M47.6051 52.0067H42.1669C41.6351 52.0067 41.4121 52.3841 41.4121 52.7787C41.4121 53.1561 41.6523 53.5507 42.1669 53.5507H47.6051C48.2055 53.5507 48.3599 53.0703 48.3599 52.7787C48.3599 52.4013 48.1369 52.0067 47.6051 52.0067Z" fill="#AFA178"/>
<path d="M47.6051 47.7522H42.1669C41.6351 47.7522 41.4121 48.1296 41.4121 48.5242C41.4121 48.9016 41.6523 49.2962 42.1669 49.2962H47.6051C48.2055 49.2962 48.3599 48.8158 48.3599 48.5242C48.3599 48.1468 48.1369 47.7522 47.6051 47.7522Z" fill="#AFA178"/>
<path d="M70.4389 57.5306H69.5125V48.1982H69.564V40.6157H69.5125V31.2318C69.5125 29.9623 68.4832 28.933 67.2137 28.933H38.0672V2.56563C38.0672 1.29615 37.0379 0.266846 35.7684 0.266846H7.3767C6.10722 0.266846 5.07791 1.29615 5.07791 2.56563V57.5306H4.15154C1.85275 57.5306 0 59.3834 0 61.6821C0 63.9638 1.85275 65.8337 4.15154 65.8337H4.83774V70.0882C4.83774 71.289 5.81558 72.284 7.0336 72.284H8.73195C9.93281 72.284 10.9107 71.3062 10.9107 70.0882V65.8337H63.6969V70.0882C63.6969 71.289 64.6748 72.284 65.8928 72.284H67.5912C68.792 72.284 69.7699 71.3062 69.7699 70.0882V65.8337H70.4561C72.7377 65.8337 74.6076 63.9809 74.6076 61.6821C74.5904 59.3834 72.7377 57.5306 70.4389 57.5306ZM49.4067 30.4427H56.6462V38.883L56.183 38.6771C55.6855 38.4713 55.2566 38.214 54.8449 37.9566C54.1587 37.5621 53.5754 37.2018 52.9921 37.2018C52.7348 37.2018 52.4775 37.2704 52.203 37.4077L49.4067 38.9173V30.4427ZM38.0672 30.4427H47.8628V38.5742C47.8628 39.1918 48.1716 39.7579 48.7034 40.0667C48.9779 40.2383 49.2695 40.324 49.544 40.324C50.1444 40.324 50.762 39.9638 51.4653 39.552C51.9114 39.2947 52.3746 39.0202 52.8892 38.7972L53.0265 38.7286L53.1637 38.7972C53.9185 39.1746 54.4503 39.4834 54.8621 39.7064C55.6512 40.1525 55.9428 40.3069 56.4232 40.3069C57.3839 40.3069 58.1558 39.5177 58.1558 38.5571V30.4255H67.1794C67.6083 30.4255 67.9514 30.7686 67.9514 31.1975V57.5135H38.0672V30.4427ZM17.9443 1.79365H25.2009V10.234L24.7377 10.0281C24.2402 9.82224 23.8113 9.56492 23.3996 9.30759C22.7134 8.91302 22.1301 8.55276 21.5468 8.55276C21.2895 8.55276 21.0322 8.62138 20.7577 8.75863L17.9614 10.2683V1.79365H17.9443ZM6.84489 1.98236C7.01644 1.81081 7.2223 1.79365 7.3767 1.79365H16.4003V9.92517C16.4003 10.5428 16.7091 11.1089 17.2409 11.4177C17.5154 11.5892 17.807 11.675 18.0815 11.675C18.6819 11.675 19.2995 11.3147 20.0029 10.903C20.4489 10.6457 20.9121 10.3712 21.4267 10.1482L21.564 10.0796L21.7012 10.1482C22.456 10.5256 22.9879 10.8344 23.3996 11.0574C24.1887 11.5034 24.4804 11.6578 24.9607 11.6578C25.9214 11.6578 26.6934 10.8687 26.6934 9.90802V1.79365H27.0365C28.1515 1.81081 29.2495 1.82796 30.2788 1.82796C31.7884 1.82796 32.9207 1.81081 33.7613 1.7765C34.2588 1.75934 34.6705 1.75934 34.9793 1.75934C35.7513 1.75934 36.4889 1.75934 36.4889 2.54848V28.9159H6.62187V13.6307C6.69049 9.29043 6.63903 6.52846 6.62187 4.88157C6.57041 2.78865 6.55325 2.29115 6.84489 1.98236ZM18.1501 40.324C18.4417 40.324 18.7162 40.2554 18.9736 40.1182L21.564 38.7286L24.1544 40.1182C24.4117 40.2554 24.6862 40.324 24.9778 40.324C25.8184 40.324 26.7277 39.655 26.7277 38.5742V30.4427H36.5232V57.5306H6.62187V30.4427H16.4174V38.5742C16.4174 39.5521 17.1894 40.324 18.1501 40.324ZM17.9443 38.883V30.7858V30.4427H25.2009V38.9345L22.4046 37.4248C22.1473 37.2876 21.8899 37.219 21.6154 37.219C21.0322 37.219 20.4489 37.5621 19.7627 37.9738C19.351 38.214 18.9049 38.4713 18.4246 38.6943L17.9443 38.883ZM9.17799 70.5513C9.0579 70.6714 8.9035 70.7229 8.7148 70.7229H8.69764C8.54325 70.7057 8.38885 70.7057 8.23446 70.7057C8.02859 70.7057 7.83989 70.7057 7.66834 70.7229C7.5311 70.7229 7.39386 70.74 7.27377 70.74C7.08506 70.74 6.8792 70.7229 6.70765 70.6371C6.58756 70.5685 6.3817 70.4141 6.3817 70.071V65.8165H9.38385L9.36669 66.1596C9.31523 67.4634 9.34954 68.3726 9.36669 69.0245C9.401 69.9337 9.41816 70.3112 9.17799 70.5513ZM68.2259 70.0882C68.2259 70.4484 67.9343 70.74 67.574 70.74H65.8756C65.5154 70.74 65.2237 70.4484 65.2237 70.0882V65.8337H68.2259V70.0882ZM70.4389 64.2897H4.15154C2.71051 64.2897 1.54396 63.1232 1.54396 61.6821C1.54396 60.2411 2.71051 59.0746 4.15154 59.0746H70.4561C71.8971 59.0746 73.0636 60.2411 73.0636 61.6821C73.0636 63.1232 71.8799 64.2897 70.4389 64.2897Z" fill="#AFA178"/>
<circle cx="37.5" cy="28.9016" r="4" fill="#007EEA"/>
</g>
<defs>
<clipPath id="clip0_211:2">
<rect width="74.5904" height="72" fill="white" transform="translate(0 0.266846)"/>
</clipPath>
</defs>
</svg>
