<svg width="73" height="68" viewBox="0 0 73 68" fill="none" xmlns="http://www.w3.org/2000/svg">
<g clip-path="url(#clip0_127:2693)">
<path d="M1.57788 67.7431C1.17894 67.7431 0.832031 67.4135 0.832031 66.9973V1.53637C0.832031 1.12009 1.16159 0.790527 1.57788 0.790527H72.1035C72.5025 0.790527 72.8494 1.12009 72.8494 1.53637V67.0146C72.8494 67.4135 72.5198 67.7604 72.1035 67.7604H1.57788V67.7431ZM2.30637 66.2687H71.3403V2.26487H45.1317V21.6742C45.1317 21.8129 45.097 21.969 45.0103 22.0905C44.8715 22.2986 44.6461 22.42 44.3859 22.42C44.2471 22.42 44.091 22.3853 43.9696 22.2986L36.8234 17.5287L29.6771 22.2986C29.5557 22.3853 29.417 22.42 29.2608 22.42C28.8619 22.42 28.515 22.0905 28.515 21.6742V2.26487H2.30637V66.2687ZM36.8234 15.8982C36.9621 15.8982 37.1182 15.9329 37.2396 16.0196L43.64 20.2866V2.26487H30.0067V20.2866L36.4071 16.0196C36.5458 15.9503 36.6846 15.8982 36.8234 15.8982Z" fill="#AFA178"/>
<path d="M55.7126 61.4468C55.3137 61.4468 54.9668 61.1172 54.9668 60.7009C54.9668 60.302 55.2964 59.9551 55.7126 59.9551H65.7902C66.1892 59.9551 66.5361 60.2846 66.5361 60.7009C66.5361 61.0999 66.2065 61.4468 65.7902 61.4468H55.7126Z" fill="#AFA178"/>
<path d="M55.7126 56.4166C55.3137 56.4166 54.9668 56.0871 54.9668 55.6708C54.9668 55.2545 55.2964 54.9249 55.7126 54.9249H65.7902C66.1892 54.9249 66.5361 55.2545 66.5361 55.6708C66.5361 56.0871 66.2065 56.4166 65.7902 56.4166H55.7126Z" fill="#AFA178"/>
<circle cx="36.8398" cy="36.2755" r="4" fill="#007EEA"/>
</g>
<defs>
<clipPath id="clip0_127:2693">
<rect width="72" height="66.9525" fill="white" transform="translate(0.832031 0.790527)"/>
</clipPath>
</defs>
</svg>
