<svg width="22" height="25" viewBox="0 0 22 25" xmlns="http://www.w3.org/2000/svg">
<path d="M13.8361 17.9831C15.859 14.628 18.4157 9.91129 18.4157 7.4868C18.4157 3.397 15.09 0.0712891 11.0002 0.0712891C6.91042 0.0712891 3.5847 3.397 3.5847 7.4868C3.5847 9.91129 6.14144 14.628 8.16429 17.9831C5.76429 18.1644 0.30307 18.8158 0.30307 20.9758C0.30307 23.1015 5.84756 24.0713 11.0051 24.0713C16.1578 24.0713 21.7072 23.1015 21.7072 20.9758C21.7023 18.8158 16.2361 18.1644 13.8361 17.9831ZM4.60838 7.4868C4.60838 3.96027 7.47858 1.09006 11.0002 1.09006C14.5267 1.09006 17.3969 3.96027 17.3969 7.4868C17.3969 10.5676 12.4892 18.2966 11.0002 20.5692C9.51123 18.2966 4.60838 10.5676 4.60838 7.4868ZM11.0002 23.0476C4.73572 23.0476 1.32185 21.6762 1.32185 20.9709C1.32185 20.4272 3.57491 19.2566 8.76674 18.9578C9.74144 20.5301 10.481 21.6419 10.579 21.7741C10.7112 21.9505 11.0982 22.1611 11.4263 21.7741C11.5292 21.6517 12.2639 20.5301 13.2386 18.9578C18.4304 19.2566 20.6835 20.4223 20.6835 20.9709C20.6786 21.6811 17.2647 23.0476 11.0002 23.0476Z"/>
<path d="M14.2304 7.48703C14.2304 5.70417 12.7855 4.25928 11.0027 4.25928C9.2198 4.25928 7.7749 5.70417 7.7749 7.48703C7.7749 9.26989 9.2198 10.7148 11.0027 10.7148C12.7855 10.7148 14.2304 9.26989 14.2304 7.48703ZM8.79368 7.48703C8.79368 6.26744 9.78307 5.27805 11.0027 5.27805C12.2222 5.27805 13.2116 6.26744 13.2116 7.48703C13.2116 8.70662 12.2222 9.69601 11.0027 9.69601C9.78307 9.69601 8.79368 8.70662 8.79368 7.48703Z"/>
</svg>
