<svg width="22" height="25" viewBox="0 0 22 25" fill="none" xmlns="http://www.w3.org/2000/svg">
<path d="M13.8362 18.7029C15.859 15.3478 18.4158 10.631 18.4158 8.20653C18.4158 4.11673 15.09 0.791016 11.0002 0.791016C6.91045 0.791016 3.58473 4.11673 3.58473 8.20653C3.58473 10.631 6.14147 15.3478 8.16433 18.7029C5.76433 18.8841 0.303101 19.5355 0.303101 21.6955C0.303101 23.8212 5.84759 24.791 11.0051 24.791C16.1578 24.791 21.7072 23.8212 21.7072 21.6955C21.7023 19.5355 16.2362 18.8841 13.8362 18.7029ZM4.60841 8.20653C4.60841 4.67999 7.47861 1.80979 11.0002 1.80979C14.5268 1.80979 17.397 4.67999 17.397 8.20653C17.397 11.2873 12.4892 19.0163 11.0002 21.289C9.51126 19.0163 4.60841 11.2873 4.60841 8.20653ZM11.0002 23.7673C4.73575 23.7673 1.32188 22.3959 1.32188 21.6906C1.32188 21.1469 3.57494 19.9763 8.76677 19.6775C9.74147 21.2498 10.4811 22.3616 10.579 22.4939C10.7113 22.6702 11.0982 22.8808 11.4264 22.4939C11.5292 22.3714 12.2639 21.2498 13.2386 19.6775C18.4304 19.9763 20.6835 21.142 20.6835 21.6906C20.6786 22.4008 17.2647 23.7673 11.0002 23.7673Z" fill="white"/>
</svg>
