<svg width="18" height="20" viewBox="0 0 18 20" xmlns="http://www.w3.org/2000/svg">
<path d="M9.5217 0.253906C5.06143 0.253906 0.65332 2.92578 0.65332 7.25C0.65332 10 2.37483 11.5625 3.41817 11.5625C3.84855 11.5625 4.09634 10.4844 4.09634 10.1797C4.09634 9.81641 3.06604 9.04297 3.06604 7.53125C3.06604 4.39063 5.72656 2.16406 9.16958 2.16406C12.1301 2.16406 14.3211 3.67578 14.3211 6.45313C14.3211 8.52734 13.3951 12.418 10.3955 12.418C9.31304 12.418 8.38707 11.7148 8.38707 10.707C8.38707 9.23047 9.53475 7.80078 9.53475 6.27734C9.53475 3.69141 5.45268 4.16016 5.45268 7.28516C5.45268 7.94141 5.54397 8.66797 5.87002 9.26563C5.2701 11.5859 4.04417 15.043 4.04417 17.4336C4.04417 18.1719 4.16155 18.8984 4.2398 19.6367C4.38761 19.7852 4.3137 19.7695 4.53976 19.6953C6.73077 17 6.65252 16.4727 7.64369 12.9453C8.1784 13.8594 9.56083 14.3516 10.6563 14.3516C15.2731 14.3516 17.3467 10.3086 17.3467 6.66406C17.3467 2.78516 13.6168 0.253906 9.5217 0.253906Z"/>
</svg>
