<svg width="73" height="73" viewBox="0 0 73 73" fill="none" xmlns="http://www.w3.org/2000/svg">
<g clip-path="url(#clip0_130:594)">
<path d="M21.4035 15.1391H22.1535V14.3891V9.24623C22.1535 4.92559 25.6542 1.4248 29.9749 1.4248C34.2955 1.4248 37.7963 4.92559 37.7963 9.24623V14.3891V15.1391H38.5463H52.2606C55.635 15.1391 58.3677 17.8719 58.3677 21.2462V34.9605V35.7105H59.1177H64.2606C68.5812 35.7105 72.082 39.2113 72.082 43.5319C72.082 47.8526 68.5812 51.3534 64.2606 51.3534H59.1177H58.3677V52.1034V65.8177C58.3677 69.192 55.635 71.9248 52.2606 71.9248H39.2963V67.532C39.2963 62.3829 35.124 58.2105 29.9749 58.2105C24.8258 58.2105 20.6535 62.3829 20.6535 67.532V71.9248H7.68917C4.31482 71.9248 1.58203 69.192 1.58203 65.8177V52.8534H5.97489C11.124 52.8534 15.2963 48.681 15.2963 43.5319C15.2963 38.3829 11.124 34.2105 5.97489 34.2105H1.58203V21.2462C1.58203 17.8719 4.31482 15.1391 7.68917 15.1391H21.4035Z" stroke="#AFA178" stroke-width="1.5"/>
<ellipse cx="30.7104" cy="41.5667" rx="3.74026" ry="3.74026" fill="#007EEA"/>
</g>
<defs>
<clipPath id="clip0_130:594">
<rect width="72" height="72" fill="white" transform="translate(0.832031 0.674805)"/>
</clipPath>
</defs>
</svg>
