<svg width="31" height="31" viewBox="0 0 31 31" xmlns="http://www.w3.org/2000/svg">
<path d="M30.3169 28.8296L22.1505 20.663C23.9409 18.5162 25.0215 15.7577 25.0215 12.75C25.0215 5.92631 19.4702 0.375 12.6465 0.375C5.8228 0.375 0.271484 5.92631 0.271484 12.75C0.271484 19.5737 5.8228 25.125 12.6465 25.125C15.6542 25.125 18.4127 24.0444 20.5595 22.254L28.7261 30.4207C28.9458 30.6403 29.2338 30.7503 29.5215 30.7503C29.8092 30.7503 30.0972 30.6403 30.3169 30.4207C30.7565 29.9811 30.7565 29.2689 30.3169 28.8296ZM2.52148 12.75C2.52148 7.16719 7.06311 2.625 12.6465 2.625C18.2299 2.625 22.7715 7.16719 22.7715 12.75C22.7715 18.3328 18.2299 22.875 12.6465 22.875C7.06311 22.875 2.52148 18.3328 2.52148 12.75Z"/>
</svg>
