<svg width="18" height="18" viewBox="0 0 18 18" xmlns="http://www.w3.org/2000/svg">
<path d="M17.4434 15.5137L14.133 12.2034C13.9836 12.054 13.7811 11.9709 13.5686 11.9709H13.0273C13.9438 10.7989 14.4883 9.32466 14.4883 7.72095C14.4883 3.90591 11.3971 0.814697 7.58203 0.814697C3.76699 0.814697 0.675781 3.90591 0.675781 7.72095C0.675781 11.536 3.76699 14.6272 7.58203 14.6272C9.18574 14.6272 10.66 14.0827 11.832 13.1663V13.7075C11.832 13.92 11.915 14.1225 12.0645 14.2719L15.3748 17.5823C15.6869 17.8944 16.1916 17.8944 16.5004 17.5823L17.44 16.6426C17.7521 16.3305 17.7521 15.8258 17.4434 15.5137ZM7.58203 11.9709C5.23457 11.9709 3.33203 10.0717 3.33203 7.72095C3.33203 5.37349 5.23125 3.47095 7.58203 3.47095C9.92949 3.47095 11.832 5.37017 11.832 7.72095C11.832 10.0684 9.93281 11.9709 7.58203 11.9709Z"/>
</svg>
