<svg width="37" height="34" viewBox="0 0 37 34" fill="none" xmlns="http://www.w3.org/2000/svg">
<path d="M36.2362 12.2461L32.3634 8.37332C32.2749 8.28473 32.1697 8.21445 32.054 8.1665C31.9382 8.11854 31.8142 8.09386 31.6889 8.09384C31.5636 8.09383 31.4396 8.11849 31.3239 8.16642C31.2081 8.21435 31.1029 8.28461 31.0143 8.37319L26.3716 13.016V1.6771C26.3716 1.55183 26.3469 1.42777 26.299 1.31203C26.2511 1.19629 26.1808 1.09112 26.0922 1.00254C26.0036 0.913955 25.8985 0.843687 25.7827 0.795748C25.667 0.74781 25.5429 0.723139 25.4176 0.723145H1.46958C1.34431 0.723139 1.22026 0.74781 1.10451 0.795748C0.988771 0.843687 0.883605 0.913956 0.79502 1.00254C0.706436 1.09112 0.636168 1.19629 0.588229 1.31203C0.54029 1.42778 0.515619 1.55183 0.515625 1.6771V32.3227C0.515619 32.4479 0.54029 32.572 0.588229 32.6877C0.636168 32.8035 0.706436 32.9086 0.79502 32.9972C0.883605 33.0858 0.988771 33.1561 1.10451 33.204C1.22026 33.252 1.34431 33.2766 1.46958 33.2766H25.4176C25.5429 33.2766 25.667 33.252 25.7827 33.204C25.8985 33.1561 26.0036 33.0858 26.0922 32.9972C26.1808 32.9086 26.2511 32.8035 26.299 32.6877C26.3469 32.572 26.3716 32.4479 26.3716 32.3227V23.4597L36.2362 13.5953C36.3248 13.5067 36.3951 13.4015 36.443 13.2858C36.491 13.17 36.5156 13.046 36.5156 12.9207C36.5156 12.7954 36.491 12.6713 36.443 12.5556C36.3951 12.4399 36.3248 12.3347 36.2362 12.2461ZM24.4637 31.3687H2.42354V2.6311H24.4637V14.9239L18.8585 20.5291C18.7514 20.6362 18.6713 20.7673 18.6249 20.9115L16.7872 26.6219C16.7334 26.789 16.7268 26.9676 16.768 27.1382C16.8092 27.3088 16.8966 27.4647 17.0207 27.5888C17.1448 27.7129 17.3007 27.8003 17.4713 27.8415C17.6419 27.8827 17.8205 27.876 17.9876 27.8222L23.6979 25.9844C23.8421 25.9381 23.9731 25.8581 24.0802 25.751L24.4636 25.3676L24.4637 31.3687ZM22.8941 24.2389L19.1731 25.4365L20.3706 21.7153L31.6889 10.3969L34.2126 12.9206L22.8941 24.2389Z" fill="#002E62"/>
<path d="M6.5753 7.94698H17.0124C17.2654 7.94698 17.5081 7.84647 17.687 7.66757C17.8659 7.48867 17.9664 7.24603 17.9664 6.99302C17.9664 6.74002 17.8659 6.49737 17.687 6.31847C17.5081 6.13957 17.2654 6.03906 17.0124 6.03906H6.5753C6.32229 6.03906 6.07965 6.13957 5.90075 6.31847C5.72184 6.49737 5.62134 6.74002 5.62134 6.99302C5.62134 7.24603 5.72184 7.48867 5.90075 7.66757C6.07965 7.84647 6.32229 7.94698 6.5753 7.94698Z" fill="#002E62"/>
<path d="M6.5753 12.1438H11.5612C11.8142 12.1438 12.0569 12.0433 12.2358 11.8644C12.4147 11.6854 12.5152 11.4428 12.5152 11.1898C12.5152 10.9368 12.4147 10.6942 12.2358 10.5152C12.0569 10.3363 11.8142 10.2358 11.5612 10.2358H6.5753C6.32229 10.2358 6.07965 10.3363 5.90075 10.5152C5.72184 10.6942 5.62134 10.9368 5.62134 11.1898C5.62134 11.4428 5.72184 11.6854 5.90075 11.8644C6.07965 12.0433 6.32229 12.1438 6.5753 12.1438Z" fill="#002E62"/>
<path d="M14.3438 25.4349H13.3017C12.9149 25.4344 12.544 25.2806 12.2704 25.007C11.9969 24.7335 11.843 24.3626 11.8426 23.9757V23.7296C11.8426 23.3035 11.7133 22.8874 11.4718 22.5363C11.2304 22.1853 10.8881 21.9157 10.4902 21.7632C10.0923 21.6107 9.65749 21.5826 9.24324 21.6824C8.82899 21.7822 8.45477 22.0054 8.17001 22.3224L4.6183 26.2766C4.53407 26.3697 4.46904 26.4786 4.42695 26.5969C4.38487 26.7152 4.36655 26.8406 4.37304 26.966C4.37954 27.0914 4.41073 27.2143 4.46481 27.3276C4.5189 27.4409 4.59482 27.5424 4.68823 27.6263C4.78164 27.7102 4.89069 27.7748 5.00913 27.8165C5.12757 27.8582 5.25308 27.8761 5.37844 27.8691C5.50381 27.8622 5.62657 27.8306 5.73969 27.7761C5.85281 27.7216 5.95406 27.6453 6.03764 27.5516L9.58943 23.5973C9.6162 23.5675 9.65138 23.5466 9.69031 23.5372C9.72925 23.5278 9.77012 23.5305 9.80752 23.5448C9.84493 23.5591 9.8771 23.5845 9.8998 23.6175C9.9225 23.6505 9.93465 23.6896 9.93465 23.7296V23.9757C9.93566 24.8684 10.2907 25.7243 10.922 26.3555C11.5532 26.9867 12.4091 27.3418 13.3018 27.3428H14.3438C14.5968 27.3428 14.8395 27.2423 15.0184 27.0634C15.1973 26.8845 15.2978 26.6419 15.2978 26.3889C15.2978 26.1359 15.1973 25.8932 15.0184 25.7143C14.8395 25.5354 14.5968 25.4349 14.3438 25.4349L14.3438 25.4349Z" fill="#002E62"/>
</svg>
