<svg width="73" height="73" viewBox="0 0 73 73" fill="none" xmlns="http://www.w3.org/2000/svg">
<g clip-path="url(#clip0_127:2596)">
<path d="M59.9847 37.7747C59.8365 37.6079 59.5955 37.4967 59.3175 37.4967C59.0395 37.4967 58.8172 37.5894 58.6504 37.7747C58.15 38.3492 46.2148 51.8596 46.2148 59.7361C46.2148 66.9639 52.0897 72.8388 59.3175 72.8388C66.5453 72.8388 72.4202 66.9639 72.4202 59.7361C72.4202 51.7855 60.1145 37.923 59.9847 37.7747ZM59.3175 71.0596C53.072 71.0596 47.994 65.9816 47.994 59.7361C47.994 53.5461 57.0195 42.4635 58.8357 40.2952L59.3175 39.7206L59.7994 40.2952C61.6156 42.4635 70.6411 53.5461 70.6411 59.7361C70.6411 65.9816 65.5631 71.0596 59.3175 71.0596Z" fill="#AFA178"/>
<path d="M47.2894 40.0728C47.4933 39.9431 47.623 39.7393 47.6601 39.5169C47.6971 39.2759 47.6601 39.0535 47.5303 38.8497L40.7473 28.7493C39.4871 26.8589 38.8199 24.6721 38.8199 22.4296V2.61802H41.0068C41.4886 2.61802 41.8964 2.2103 41.8964 1.72844C41.8964 1.24659 41.4886 0.838867 41.0068 0.838867H19.6199C19.1381 0.838867 18.7303 1.24659 18.7303 1.72844C18.7303 2.2103 19.1381 2.61802 19.6199 2.61802H21.7883V22.4296C21.7883 24.6721 21.1211 26.8589 19.8608 28.7493L2.36587 54.825C1.0871 56.7524 0.419922 58.9763 0.419922 61.2559C0.419922 67.6311 5.60911 72.8389 12.0029 72.8389H41.0068C41.4886 72.8389 41.8964 72.4311 41.8964 71.9493C41.8964 71.4674 41.4886 71.0597 41.0068 71.0597H12.0029C6.60988 71.0597 2.19907 66.6674 2.19907 61.2559C2.19907 59.3099 2.77359 57.4381 3.84849 55.8072L21.3435 29.7315C22.8076 27.5447 23.5674 25.0242 23.5674 22.4296V2.61802H37.0593V9.99408H31.8516C31.3697 9.99408 30.962 10.4018 30.962 10.8837C30.962 11.3655 31.3697 11.7732 31.8516 11.7732H37.0593V19.1493H31.8516C31.3697 19.1493 30.962 19.557 30.962 20.0389C30.962 20.5207 31.3697 20.9284 31.8516 20.9284H37.0593V22.4111C37.0593 25.0057 37.8377 27.5261 39.2832 29.713L46.0663 39.8134C46.2331 40.0543 46.511 40.2026 46.8076 40.2026C46.9744 40.2396 47.1412 40.184 47.2894 40.0728Z" fill="#AFA178"/>
<circle cx="30.4199" cy="50.4967" r="4" fill="#007EEA"/>
</g>
<defs>
<clipPath id="clip0_127:2596">
<rect width="72" height="72" fill="white" transform="translate(0.419922 0.838867)"/>
</clipPath>
</defs>
</svg>
