<svg width="20" height="18" viewBox="0 0 20 18" fill="none" xmlns="http://www.w3.org/2000/svg">
<path d="M17.282 4.92613C17.2937 5.10379 17.2937 5.28148 17.2937 5.45914C17.2937 10.8779 13.513 17.1216 6.60313 17.1216C4.47432 17.1216 2.49675 16.4489 0.833252 15.2815C1.13572 15.3195 1.42651 15.3322 1.74061 15.3322C3.49714 15.3322 5.11412 14.685 6.40537 13.581C4.75351 13.5429 3.3692 12.3627 2.89224 10.7383C3.12492 10.7764 3.35756 10.8018 3.60187 10.8018C3.93921 10.8018 4.27659 10.751 4.59065 10.6622C2.869 10.2814 1.57772 8.63172 1.57772 6.63934V6.58859C2.07791 6.89316 2.6596 7.08351 3.2761 7.10887C2.26404 6.37281 1.601 5.11648 1.601 3.69516C1.601 2.93375 1.78709 2.23578 2.11283 1.62664C3.96245 4.11395 6.74271 5.73828 9.86027 5.91598C9.80212 5.61141 9.76721 5.29418 9.76721 4.97691C9.76721 2.71801 11.4423 0.87793 13.5246 0.87793C14.6065 0.87793 15.5836 1.37285 16.27 2.17234C17.1191 1.99469 17.9334 1.65203 18.6547 1.1825C18.3755 2.1343 17.7822 2.93379 17.0028 3.44137C17.759 3.35258 18.4918 3.1241 19.1665 2.80687C18.6548 3.61902 18.0149 4.34234 17.282 4.92613Z" fill="#002E62"/>
</svg>
