<svg width="18" height="18" viewBox="0 0 18 18" fill="none" xmlns="http://www.w3.org/2000/svg">
<path d="M8.6757 2.20702C9.93236 2.20702 10.9507 3.22535 10.9507 4.48201C10.9507 5.73868 9.93236 6.75701 8.6757 6.75701C7.41903 6.75701 6.4007 5.73868 6.4007 4.48201C6.4007 3.22535 7.41903 2.20702 8.6757 2.20702ZM8.6757 11.957C11.8932 11.957 15.284 13.5387 15.284 14.232V15.4237H2.06737V14.232C2.06737 13.5387 5.4582 11.957 8.6757 11.957ZM8.6757 0.148682C6.28153 0.148682 4.34237 2.08785 4.34237 4.48201C4.34237 6.87618 6.28153 8.81535 8.6757 8.81535C11.0699 8.81535 13.009 6.87618 13.009 4.48201C13.009 2.08785 11.0699 0.148682 8.6757 0.148682ZM8.6757 9.89868C5.7832 9.89868 0.0090332 11.3503 0.0090332 14.232V17.482H17.3424V14.232C17.3424 11.3503 11.5682 9.89868 8.6757 9.89868Z" fill="#002E62"/>
</svg>
