<svg width="24" height="22" viewBox="0 0 24 22" xmlns="http://www.w3.org/2000/svg">
<path d="M22.2964 3.53068H16.8764V2.1314C16.8758 1.62301 16.6736 1.13559 16.3142 0.776102C15.9547 0.416613 15.4673 0.214412 14.9589 0.213867H8.96424C8.45582 0.214412 7.96838 0.416605 7.60885 0.776087C7.24932 1.13557 7.04706 1.62298 7.04645 2.1314V3.53068H1.67539C1.22376 3.53116 0.790764 3.71076 0.47139 4.03008C0.152016 4.34941 -0.0276521 4.78238 -0.0281972 5.23401V10.3435C-0.0284083 10.444 0.00500857 10.5417 0.0667333 10.621C0.128458 10.7003 0.214942 10.7567 0.312418 10.7812L0.820894 10.9099V19.6675C0.821371 20.1184 1.00068 20.5506 1.31949 20.8694C1.63829 21.1882 2.07054 21.3676 2.52139 21.368H21.4504C21.9012 21.3676 22.3335 21.1882 22.6524 20.8695C22.9712 20.5507 23.1506 20.1184 23.1511 19.6675V10.9086L23.6593 10.7799C23.7568 10.7554 23.8433 10.699 23.905 10.6197C23.9667 10.5404 24.0002 10.4427 24 10.3422V5.23504C23.9997 4.78323 23.8201 4.35 23.5007 4.03045C23.1813 3.7109 22.7482 3.53116 22.2964 3.53068ZM7.94755 2.1314C7.94789 1.86189 8.05512 1.60351 8.24572 1.41296C8.43632 1.22241 8.69473 1.11524 8.96424 1.11496H14.9589C15.2284 1.11524 15.4867 1.22241 15.6773 1.41297C15.8678 1.60353 15.975 1.86191 15.9753 2.1314V3.53068H7.94755V2.1314ZM0.8729 5.23504C0.8729 5.02213 0.957423 4.81794 1.1079 4.66732C1.25837 4.5167 1.46249 4.43198 1.67539 4.43178H22.2977C22.5104 4.43198 22.7143 4.51656 22.8648 4.66695C23.0152 4.81735 23.0999 5.02128 23.1001 5.23401V9.99284L22.5973 10.1203C22.5953 10.1203 22.5932 10.1203 22.5912 10.1203L13.5516 12.4111V12.1089C13.5513 11.822 13.4374 11.547 13.2347 11.344C13.032 11.141 12.7571 11.0267 12.4703 11.026H11.4531C11.166 11.0263 10.8907 11.1405 10.6877 11.3435C10.4847 11.5465 10.3705 11.8218 10.3702 12.1089V12.3964L1.38138 10.1216L0.8729 9.99284V5.23504ZM11.2713 12.9752V12.1089C11.2714 12.0607 11.2905 12.0145 11.3246 11.9804C11.3587 11.9463 11.4049 11.9272 11.4531 11.9271H12.4703C12.5185 11.9272 12.5647 11.9463 12.5987 11.9804C12.6328 12.0145 12.652 12.0607 12.652 12.1089V14.3454C12.652 14.3936 12.6328 14.4398 12.5987 14.4738C12.5647 14.5079 12.5185 14.5271 12.4703 14.5272H11.4531C11.4049 14.5271 11.3587 14.5079 11.3246 14.4738C11.2905 14.4398 11.2714 14.3936 11.2713 14.3454V12.9752ZM21.4504 20.4672H2.52139C2.30946 20.4669 2.10629 20.3826 1.95643 20.2328C1.80657 20.0829 1.72226 19.8797 1.72199 19.6678V11.1372L10.0525 13.2455L10.3702 13.3261V14.3454C10.3701 14.3759 10.3733 14.4064 10.3795 14.4363C10.4018 14.706 10.5245 14.9575 10.7233 15.1411C10.922 15.3248 11.1825 15.4272 11.4531 15.4283H12.4703C12.7409 15.4272 13.0013 15.3248 13.2001 15.1411C13.3988 14.9575 13.5215 14.706 13.5439 14.4363C13.5496 14.4063 13.5522 14.3759 13.5516 14.3454V13.3398L21.5914 11.3023L22.2498 11.1354V19.6675C22.2495 19.8795 22.1652 20.0826 22.0153 20.2325C21.8655 20.3824 21.6623 20.4667 21.4504 20.4669V20.4672Z"/>
</svg>
