<svg width="25" height="24" viewBox="0 0 25 24" fill="none" xmlns="http://www.w3.org/2000/svg">
<path d="M23.7318 20.0415C24.5009 21.4567 23.5355 23.2258 21.9995 23.2258H2.00422C0.465173 23.2258 -0.495743 21.454 0.27184 20.0415L10.2696 1.63861C11.039 0.222697 12.9663 0.225263 13.7343 1.63861L23.7318 20.0415ZM12.002 16.2367C10.9434 16.2367 10.0853 17.1477 10.0853 18.2715C10.0853 19.3953 10.9434 20.3063 12.002 20.3063C13.0605 20.3063 13.9186 19.3953 13.9186 18.2715C13.9186 17.1477 13.0605 16.2367 12.002 16.2367ZM10.1823 8.9227L10.4913 14.9386C10.5058 15.2201 10.725 15.4405 10.9906 15.4405H13.0133C13.2789 15.4405 13.4981 15.2201 13.5126 14.9386L13.8217 8.9227C13.8373 8.61863 13.6093 8.36295 13.3224 8.36295H10.6815C10.3946 8.36295 10.1666 8.61863 10.1823 8.9227Z" fill="#EB8D2B"/>
</svg>
