<?xml version="1.0" standalone="no"?>
<!DOCTYPE svg PUBLIC "-//W3C//DTD SVG 20010904//EN"
 "http://www.w3.org/TR/2001/REC-SVG-20010904/DTD/svg10.dtd">
<svg version="1.0" xmlns="http://www.w3.org/2000/svg"
 width="260.000000pt" height="260.000000pt" viewBox="0 0 260.000000 260.000000"
 preserveAspectRatio="xMidYMid meet">
<metadata>
Created by potrace 1.14, written by Peter Selinger 2001-2017
</metadata>
<g transform="translate(0.000000,260.000000) scale(0.100000,-0.100000)"
fill="#000000" stroke="none">
<path d="M1292 2552 c-7 -9 -10 -11 -7 -4 9 18 -6 15 -21 -5 -9 -14 -10 -21
-1 -32 9 -12 9 -13 0 -7 -7 4 -13 3 -13 -3 0 -5 6 -12 13 -14 10 -4 10 -6 0
-6 -7 -1 -13 -9 -13 -19 0 -10 -6 -24 -12 -31 -11 -11 -10 -13 5 -8 11 4 16 3
12 -3 -3 -6 -14 -10 -23 -11 -11 0 -13 -2 -4 -6 10 -4 9 -9 -5 -20 -17 -13
-16 -14 7 -8 19 5 21 4 10 -4 -8 -6 -16 -15 -16 -21 -1 -5 -2 -14 -3 -20 0 -5
-8 -10 -16 -10 -8 0 -15 -5 -15 -11 0 -5 6 -7 13 -3 7 4 9 3 4 -2 -5 -5 -13
-10 -18 -10 -5 -1 -14 -2 -20 -3 -5 0 -7 -6 -4 -11 4 -6 11 -7 17 -4 7 4 8 2
4 -5 -4 -6 -13 -8 -19 -5 -9 5 -9 3 0 -6 10 -11 15 -11 29 1 16 13 16 12 4 -8
-10 -16 -18 -19 -26 -12 -7 5 -15 6 -17 2 -7 -12 -58 -10 -77 2 -8 5 -24 11
-35 12 -17 3 -18 1 -5 -8 13 -9 12 -10 -3 -5 -10 3 -21 6 -24 6 -3 0 1 7 8 17
13 15 12 15 -8 5 -25 -14 -36 -15 -29 -4 2 4 -4 8 -15 8 -12 0 -18 -5 -15 -13
3 -7 1 -13 -4 -13 -6 0 -10 6 -10 13 0 6 -5 4 -11 -6 -6 -9 -14 -15 -20 -12
-5 4 -9 2 -9 -3 0 -5 9 -12 19 -15 15 -4 18 -1 13 12 -5 13 -3 14 10 4 8 -7
18 -10 22 -6 10 11 37 12 30 2 -5 -8 8 -13 27 -11 4 1 4 -9 1 -21 -5 -18 -7
-19 -10 -4 -2 9 -8 17 -13 17 -6 0 -7 -6 -3 -12 4 -7 4 -10 -1 -6 -4 4 -16 3
-26 -2 -12 -7 -19 -6 -22 3 -4 9 -8 8 -16 -3 -9 -13 -12 -13 -23 -1 -11 11
-11 13 1 6 10 -6 12 -4 7 4 -5 7 -15 10 -23 7 -8 -3 -12 -2 -9 3 3 5 -3 11
-14 14 -11 3 -23 1 -26 -4 -3 -5 -9 -7 -14 -4 -5 3 -11 1 -14 -4 -4 -5 8 -20
25 -32 l32 -22 -19 29 c-12 18 -14 25 -5 20 10 -7 12 -5 6 5 -5 8 -4 11 1 6 5
-5 9 -16 9 -24 0 -9 6 -18 14 -21 9 -3 11 0 6 9 -5 8 -4 10 0 6 19 -17 12 -34
-14 -33 -14 0 -25 -5 -24 -11 1 -6 -3 -10 -10 -9 -18 2 -56 43 -49 52 4 3 -4
1 -18 -6 -14 -8 -26 -13 -27 -12 -11 8 -13 -1 -3 -13 14 -17 45 -21 35 -5 -3
6 -2 10 2 10 5 0 14 -9 21 -20 8 -13 8 -20 1 -20 -5 0 -7 -5 -3 -12 4 -7 3 -8
-4 -4 -6 4 -8 14 -5 23 4 11 3 14 -5 9 -7 -4 -12 -14 -12 -22 0 -8 -4 -12 -10
-9 -5 3 -10 1 -10 -6 0 -6 -9 -1 -19 12 -11 13 -17 26 -15 28 2 3 11 -4 19
-15 8 -10 15 -14 15 -8 0 17 -27 37 -40 29 -6 -3 -8 -10 -5 -15 3 -4 -2 -10
-10 -13 -9 -4 -12 -1 -8 9 3 7 0 14 -7 14 -6 0 -8 -4 -5 -10 3 -5 1 -10 -5
-10 -7 0 -10 -7 -6 -15 6 -18 2 -19 -26 -4 -15 8 -19 8 -14 0 4 -6 2 -11 -4
-11 -6 0 -9 -4 -6 -8 2 -4 -9 -14 -25 -21 -17 -7 -28 -19 -27 -28 2 -9 -3 -18
-11 -21 -9 -3 -11 0 -6 7 5 9 2 9 -13 0 -23 -14 -20 -31 3 -22 8 3 15 0 15 -5
0 -6 -12 -9 -26 -6 -21 4 -25 2 -20 -11 3 -9 6 -21 6 -26 0 -6 5 -7 10 -4 8 5
8 11 1 19 -8 9 -7 13 2 13 7 0 14 -9 14 -19 1 -10 -3 -18 -9 -18 -6 0 -8 -3
-5 -7 10 -10 -13 -33 -33 -33 -13 0 -17 -6 -13 -19 3 -14 -2 -20 -23 -25 -18
-5 -24 -10 -16 -15 8 -5 3 -14 -18 -29 -28 -21 -44 -52 -18 -36 7 4 8 3 4 -4
-4 -7 -16 -12 -27 -12 -24 0 -37 -29 -18 -41 12 -7 12 -9 -1 -9 -13 0 -13 -2
0 -11 13 -9 13 -10 -2 -6 -20 7 -37 -11 -33 -35 4 -21 -42 -18 -56 3 -7 11 -9
11 -9 1 0 -7 -4 -11 -9 -8 -4 3 -7 -5 -7 -17 1 -12 -3 -28 -8 -36 -8 -11 -8
-13 1 -8 6 4 13 4 16 0 2 -5 2 -3 1 4 -2 7 2 15 8 19 7 4 6 9 -3 15 -8 5 -9 9
-3 9 18 0 24 -13 13 -27 -9 -10 -8 -13 1 -13 6 0 14 9 17 20 5 20 15 25 26 14
3 -3 -6 -16 -21 -29 -22 -19 -24 -25 -14 -38 13 -16 1 -33 -16 -23 -5 3 -9 -1
-9 -10 0 -10 7 -12 20 -8 17 5 18 4 6 -8 -10 -12 -18 -13 -31 -4 -10 6 -14 12
-9 14 6 2 7 10 4 18 -3 8 1 14 8 14 23 0 0 13 -28 16 -25 2 -26 1 -10 -10 20
-15 22 -27 4 -22 -6 1 -9 1 -4 -1 4 -3 7 -9 7 -14 0 -6 -4 -7 -10 -4 -6 3 -7
-1 -4 -9 3 -9 10 -13 15 -10 5 3 6 -3 2 -13 -6 -15 -4 -16 9 -5 13 10 18 10
24 1 4 -7 3 -9 -3 -6 -6 4 -13 0 -17 -8 -3 -8 0 -15 6 -15 7 0 6 -6 -3 -16
-10 -13 -10 -17 2 -25 14 -8 12 -10 -13 -13 -6 0 -13 -8 -15 -16 -4 -12 -3
-12 5 -1 7 9 12 10 16 2 4 -6 2 -11 -5 -11 -8 0 -8 -5 2 -17 11 -15 9 -14 -9
1 -22 19 -25 45 -7 58 6 5 5 8 -3 8 -7 0 -10 5 -7 10 4 6 11 7 17 4 7 -4 8 -2
4 5 -4 6 -12 8 -18 5 -6 -4 -8 2 -4 17 7 22 6 23 -5 4 -6 -11 -21 -28 -33 -38
-11 -10 -16 -16 -10 -13 7 3 18 -2 25 -11 12 -15 12 -16 -3 -11 -17 7 -20 -14
-3 -29 4 -4 5 -2 0 6 -6 10 -4 12 5 6 10 -6 10 -11 -3 -20 -9 -7 -14 -15 -10
-18 3 -4 12 -2 20 5 7 6 16 8 20 4 3 -3 1 -6 -6 -6 -7 0 -9 -5 -5 -12 4 -7 3
-8 -4 -4 -7 4 -12 3 -12 -3 0 -6 -6 -9 -12 -7 -7 1 -9 1 -5 -2 4 -2 2 -11 -5
-20 -9 -12 -6 -11 10 2 17 14 22 16 22 5 0 -11 2 -11 11 1 9 13 10 13 6 0 -2
-8 -10 -15 -18 -15 -8 -1 -12 -7 -10 -15 3 -14 8 -41 10 -63 1 -5 7 -5 14 -1
9 6 9 4 -1 -8 -10 -13 -10 -17 0 -21 11 -4 10 -6 0 -6 -7 -1 -10 -6 -6 -13 4
-7 3 -8 -5 -4 -6 4 -9 11 -6 16 3 4 -4 6 -15 3 -12 -3 -20 -2 -19 3 3 18 -1
34 -9 34 -4 0 -8 -9 -9 -20 -1 -11 4 -20 10 -20 7 0 6 -4 -3 -10 -12 -8 -12
-10 -1 -10 11 0 11 -3 0 -17 -11 -13 -11 -17 -1 -21 10 -3 10 -7 0 -20 -11
-13 -11 -14 0 -8 16 10 13 -25 -3 -36 -5 -4 0 -6 12 -5 16 1 19 5 12 13 -7 8
-6 14 3 17 11 4 10 7 0 15 -11 7 -10 10 3 16 28 10 39 7 26 -8 -9 -11 -9 -16
0 -22 8 -5 9 -3 4 6 -5 8 -4 11 3 6 6 -4 9 -13 6 -21 -4 -8 -10 -12 -15 -9 -5
3 -6 -2 -3 -10 3 -9 11 -13 18 -9 6 4 5 -1 -3 -10 -7 -9 -9 -17 -4 -17 5 0 9
-9 9 -20 0 -10 -2 -17 -4 -15 -2 2 -10 -2 -17 -8 -18 -17 -6 -31 13 -15 15 12
16 11 3 -5 -9 -11 -21 -15 -35 -12 -17 5 -18 4 -6 -4 8 -6 12 -11 7 -11 -11 0
22 -60 33 -60 6 0 10 5 10 10 0 6 -5 10 -10 10 -6 0 -2 10 10 22 11 12 23 18
27 15 3 -4 1 -7 -5 -7 -6 0 -9 -7 -5 -17 5 -12 3 -14 -7 -8 -9 5 -11 4 -6 -4
4 -6 12 -9 17 -6 13 9 11 -9 -3 -24 -11 -10 -10 -11 2 -6 19 7 20 -29 1 -64
-12 -21 -11 -23 4 -18 9 4 19 7 21 7 3 0 2 5 -2 12 -4 7 -3 8 4 4 6 -4 8 -14
5 -23 -5 -12 -3 -14 6 -8 10 6 11 2 6 -15 -4 -13 -3 -20 2 -17 5 4 10 0 10 -8
0 -8 -3 -12 -7 -10 -3 2 -14 -9 -24 -26 -9 -16 -16 -29 -14 -30 41 -10 58 2
38 26 -7 9 -8 15 -2 15 5 0 13 -7 16 -16 3 -8 12 -12 18 -9 7 4 4 -1 -7 -10
-20 -17 -20 -17 2 -11 17 5 21 3 19 -11 -2 -10 5 -24 16 -31 10 -7 16 -17 13
-22 -3 -4 1 -10 7 -13 10 -3 10 -8 -1 -18 -8 -8 -11 -9 -7 -2 4 7 -1 10 -11 9
-17 -3 -33 10 -33 27 0 4 5 7 11 7 5 0 7 -4 4 -10 -3 -5 -2 -10 4 -10 23 0 20
20 -4 26 -20 5 -23 9 -14 20 6 8 8 14 4 14 -4 0 -14 -8 -22 -17 -13 -16 -14
-16 -9 -1 6 20 -15 30 -35 16 -11 -8 -10 -9 5 -4 15 5 17 2 13 -13 -3 -15 0
-19 14 -16 11 2 16 -1 13 -9 -3 -8 2 -20 10 -29 12 -12 13 -17 3 -20 -9 -4 -9
-6 0 -6 6 -1 15 4 18 9 5 8 11 7 21 -1 11 -9 17 -9 29 1 12 10 14 8 10 -9 -2
-14 1 -21 11 -21 14 0 19 -21 7 -33 -8 -9 -34 13 -28 24 7 11 -33 32 -45 24
-17 -10 -1 -24 22 -20 11 3 17 1 14 -3 -7 -7 -11 -8 -38 -11 -9 -1 -9 -4 2
-11 9 -5 19 -5 27 1 9 8 11 4 8 -20 -2 -17 0 -29 5 -26 5 3 11 1 15 -5 4 -6
11 -8 16 -5 5 4 9 -9 9 -27 l1 -33 15 28 c17 31 21 33 21 12 0 -8 -5 -15 -11
-15 -5 0 -1 -7 10 -15 19 -15 19 -15 0 -8 -19 6 -19 6 0 -14 22 -23 23 -23 27
3 1 10 6 26 11 34 7 12 6 13 -5 3 -19 -19 -28 -16 -24 7 2 12 -4 24 -16 30
-10 6 -19 8 -19 5 0 -4 -7 1 -16 9 -8 9 -20 14 -25 11 -5 -4 -9 -2 -9 4 0 14
49 7 70 -12 10 -8 21 -12 25 -9 4 4 6 2 5 -3 -4 -19 0 -38 7 -32 10 11 42 -23
36 -39 -3 -8 0 -15 6 -15 6 -1 15 -2 20 -3 6 0 16 -7 23 -15 7 -8 8 -11 2 -8
-7 4 -15 0 -18 -9 -3 -8 -2 -12 3 -9 12 7 81 -25 81 -37 0 -5 -5 -6 -12 -2 -7
4 -8 3 -4 -4 4 -6 13 -9 21 -5 11 4 15 -2 15 -23 -1 -25 -2 -26 -11 -11 -6 9
-14 15 -19 12 -10 -6 -22 23 -14 36 3 5 1 9 -5 9 -5 0 -11 -6 -14 -12 -6 -19
4 -49 14 -42 5 3 9 -3 9 -14 0 -10 11 -24 26 -30 15 -7 23 -17 19 -25 -4 -6 7
4 24 23 24 29 32 33 43 22 11 -11 10 -12 -6 -6 -15 6 -17 4 -11 -6 5 -8 4 -11
-2 -7 -6 4 -13 -2 -16 -12 -3 -11 1 -22 8 -24 18 -8 39 9 30 23 -5 9 -4 11 3
6 7 -4 12 0 13 11 0 16 1 16 8 -2 5 -11 6 -24 3 -30 -13 -21 -9 -46 6 -40 10
3 12 0 8 -10 -5 -13 -2 -14 15 -4 17 9 23 8 30 -2 5 -8 7 -19 5 -25 -3 -7 5
-9 21 -6 15 3 29 -1 35 -9 8 -11 8 -9 4 5 -4 10 -1 25 5 32 17 20 -8 18 -29
-2 -14 -15 -17 -15 -29 2 -7 10 -11 25 -8 33 4 10 -1 9 -15 -4 -18 -16 -20
-17 -14 -2 3 9 9 17 13 18 3 0 14 2 24 4 10 2 21 -3 24 -11 4 -11 9 -12 19 -3
11 9 15 8 20 -5 3 -9 11 -13 18 -9 6 3 3 -3 -7 -15 -15 -16 -17 -24 -7 -39 10
-15 11 -16 6 -1 -7 22 6 30 54 32 29 2 37 -1 32 -12 -4 -12 -1 -12 16 -3 15 8
23 8 28 -1 4 -7 3 -8 -4 -4 -7 4 -12 1 -12 -8 0 -18 -16 -21 -25 -6 -4 6 -11
7 -17 4 -7 -5 -8 -2 -3 7 5 8 -2 5 -14 -6 -13 -11 -26 -19 -29 -17 -4 2 -8 -2
-10 -10 -3 -11 -2 -11 6 0 8 11 10 11 15 -1 4 -10 13 -13 28 -10 17 5 20 3 14
-7 -5 -9 -4 -11 4 -6 9 6 9 12 -1 24 -7 10 1 6 16 -8 16 -14 26 -19 22 -12
-10 17 11 42 29 36 8 -3 22 -1 31 4 14 8 21 6 30 -5 9 -13 13 -13 19 -3 6 9 4
11 -5 5 -9 -6 -11 -4 -5 4 5 9 11 9 17 3 6 -6 17 -8 24 -5 8 3 14 0 14 -7 0
-9 4 -10 13 -2 16 13 54 5 60 -12 3 -7 1 -19 -5 -27 -8 -11 -9 -11 -4 3 3 10
1 20 -4 23 -9 6 -14 -7 -11 -30 1 -5 -4 -3 -11 5 -14 16 -38 25 -38 14 0 -4 8
-13 18 -21 11 -10 8 -10 -10 1 -16 9 -28 12 -28 7 0 -6 -6 -8 -13 -5 -8 3 -14
-1 -14 -9 0 -10 21 -13 88 -13 59 0 86 3 82 10 -5 7 -2 7 8 0 19 -15 141 -15
132 0 -5 8 -3 8 8 0 22 -18 49 -13 78 14 25 24 25 24 2 12 -14 -7 -26 -8 -30
-3 -8 12 -44 13 -52 1 -9 -14 -48 -18 -55 -6 -4 7 -2 8 4 4 7 -4 12 -2 12 3 0
16 -23 13 -46 -5 -16 -13 -16 -15 -2 -10 10 3 20 1 22 -3 3 -5 -5 -7 -17 -6
-31 3 -31 3 -17 20 8 9 9 15 2 15 -6 0 -14 -5 -17 -10 -3 -6 -12 -10 -18 -10
-7 0 -4 5 6 11 13 8 15 14 8 23 -8 9 -7 13 4 13 8 0 12 -3 10 -7 -2 -4 9 -7
25 -7 17 0 27 5 23 10 -3 6 -1 7 6 3 6 -4 19 -2 28 6 12 9 15 9 9 1 -8 -15 3
-17 23 -4 9 6 22 6 31 1 11 -6 22 -5 30 3 10 10 10 7 0 -13 -11 -21 -11 -23 1
-14 8 6 28 14 44 18 24 5 26 4 13 -4 -10 -6 -18 -16 -18 -23 0 -8 3 -8 9 2 6
9 11 10 15 2 4 -6 12 -8 18 -5 6 4 14 0 19 -7 6 -9 9 -10 9 -2 0 7 10 10 28 7
20 -3 23 -2 12 6 -13 9 -8 14 12 11 4 0 5 6 2 14 -7 17 -20 19 -29 5 -4 -6
-11 -8 -16 -5 -5 4 -9 1 -9 -6 0 -7 -3 -9 -6 -6 -4 4 -1 13 5 21 7 8 10 20 6
26 -3 5 -2 10 4 10 5 0 12 -6 14 -12 3 -7 6 -5 6 6 1 16 3 16 21 -7 29 -36 80
-31 126 13 20 18 31 36 27 39 -5 3 -6 17 -2 31 4 14 7 19 8 13 1 -7 6 -13 12
-13 5 0 7 5 3 12 -4 7 -3 8 5 4 6 -4 8 -12 5 -18 -5 -7 -2 -8 5 -4 7 5 10 14
8 20 -3 7 -1 19 4 27 7 12 9 12 10 -1 1 -8 0 -19 -1 -25 -1 -5 2 -6 7 -2 4 5
8 16 8 25 0 9 6 17 13 17 7 0 16 6 21 13 7 11 10 10 15 -3 4 -11 13 -15 26
-12 10 3 21 0 24 -7 3 -7 5 -7 5 2 1 7 6 10 11 7 6 -3 10 -1 10 5 0 6 4 8 10
5 5 -3 7 0 4 8 -3 8 -1 18 5 22 6 3 11 0 11 -7 1 -7 7 -2 14 12 8 14 12 28 10
32 -3 5 -1 8 5 8 5 0 12 -6 14 -12 4 -10 6 -10 6 0 1 7 6 10 13 6 7 -4 8 -3 4
5 -4 6 -12 8 -18 5 -7 -4 -8 -2 -4 4 4 7 14 12 22 12 8 0 14 4 14 8 0 17 -33
8 -57 -16 -16 -16 -27 -21 -32 -14 -4 7 -12 8 -21 1 -12 -7 -11 -10 7 -15 29
-8 20 -23 -10 -20 -20 2 -23 -1 -21 -21 1 -13 -2 -21 -6 -18 -5 3 -7 13 -4 23
5 14 4 14 -4 2 -6 -8 -8 -18 -6 -22 3 -4 -1 -8 -9 -8 -8 0 -17 9 -20 20 -3 11
-1 17 4 14 13 -7 41 15 33 27 -3 5 3 6 12 2 11 -4 15 -2 11 4 -4 6 11 23 33
38 22 15 37 31 35 36 -3 4 -1 10 5 14 5 3 10 0 11 -7 0 -7 5 -3 11 9 6 13 15
23 20 23 5 0 6 5 2 12 -4 7 -3 8 5 4 6 -4 14 0 18 11 4 10 18 29 31 43 14 14
21 19 18 13 -4 -7 -2 -13 3 -13 6 0 11 7 11 15 0 8 -6 15 -12 15 -10 0 -10 2
0 9 8 4 12 12 10 17 -1 5 9 9 24 9 28 1 27 -5 -1 -39 -9 -11 -10 -16 -3 -12 7
4 15 1 18 -9 9 -24 26 3 18 29 -4 12 -2 16 5 12 7 -5 8 -1 4 11 -6 16 -5 17
12 3 10 -8 16 -10 12 -3 -4 6 -2 13 5 15 13 5 21 38 9 38 -5 0 -13 -10 -20
-22 -6 -13 -9 -15 -6 -5 3 12 1 16 -8 12 -6 -4 -1 2 13 13 13 11 28 18 32 15
5 -2 7 1 6 9 -2 7 5 12 14 12 14 -1 15 2 8 17 -8 14 -6 20 7 29 15 8 13 9 -11
5 -36 -5 -44 -14 -26 -25 8 -5 11 -12 7 -16 -3 -4 -13 -2 -21 5 -11 9 -15 8
-19 -3 -4 -10 -1 -13 9 -9 7 3 14 0 14 -6 0 -6 -9 -11 -20 -11 -15 0 -19 5
-16 23 3 12 5 25 5 30 1 4 8 7 16 7 9 0 12 6 9 15 -4 8 1 17 10 21 9 3 16 10
16 16 0 5 -4 7 -9 4 -8 -5 -8 15 -1 34 1 3 2 8 1 13 0 4 4 7 10 7 5 0 7 5 4
11 -4 6 2 13 14 16 23 6 28 19 9 26 -10 4 -10 6 0 6 15 1 16 31 1 31 -8 0 -8
4 -2 13 6 6 9 20 8 30 -2 11 3 17 16 17 13 0 18 4 13 12 -4 7 -3 8 5 4 6 -4 8
-12 5 -18 -5 -8 -1 -9 12 -5 18 7 18 6 1 -7 -10 -8 -18 -17 -17 -21 1 -4 -1
-9 -4 -12 -3 -3 -4 4 -1 15 3 15 0 19 -12 15 -12 -5 -12 -7 -1 -14 10 -7 10
-9 -2 -9 -13 0 -13 -1 0 -10 17 -11 20 -32 5 -42 -6 -5 -3 -8 7 -8 9 0 19 -6
22 -12 3 -7 3 -2 0 11 -5 18 -3 22 7 15 10 -6 10 -3 -1 11 -14 17 -13 18 5 11
16 -6 17 -5 8 5 -10 10 -9 15 5 26 9 8 12 12 5 9 -8 -5 -11 7 -10 38 1 29 -1
42 -7 36 -6 -6 -15 -10 -20 -10 -8 0 -8 3 -1 8 6 4 18 20 28 35 10 15 23 25
29 21 7 -4 8 -3 4 5 -6 8 -12 9 -20 2 -21 -18 -27 1 -9 23 15 17 15 19 1 8
-10 -8 -19 -9 -22 -3 -4 5 -2 12 3 16 14 8 1 36 -13 28 -6 -3 -7 -2 -3 2 12
13 40 15 53 4 8 -7 15 -6 20 2 4 7 3 9 -4 5 -6 -3 -16 3 -23 15 -9 17 -13 19
-20 8 -6 -9 -9 -10 -9 -2 0 6 5 15 10 18 6 3 10 11 10 16 0 6 -7 3 -16 -5 -20
-20 -25 -20 -17 1 5 12 3 14 -8 8 -11 -7 -12 -6 -3 6 18 24 24 48 11 45 -7 -1
-8 -1 -4 2 4 2 2 11 -5 20 -12 15 -11 15 4 4 13 -11 21 -11 35 -2 16 10 16 11
1 6 -18 -5 -36 10 -18 16 17 5 19 66 3 72 -20 8 -25 7 -19 -2 2 -4 -5 -19 -16
-32 l-20 -25 16 28 c14 24 15 27 1 27 -8 0 -15 -5 -15 -12 0 -6 -2 -9 -5 -6
-3 3 -2 16 3 29 10 26 5 52 -7 45 -4 -3 -8 1 -8 9 0 8 3 13 5 10 8 -8 34 34
27 45 -11 18 -14 51 -4 45 5 -4 7 -10 4 -15 -3 -5 -1 -11 4 -15 12 -7 7 26 -8
53 -6 11 -7 23 -3 28 4 5 -2 1 -14 -9 -21 -17 -34 -14 -34 9 0 8 6 12 13 10 6
-1 9 -1 4 1 -4 3 -5 9 -1 14 3 5 7 18 9 28 3 15 -1 18 -12 14 -13 -5 -14 -2
-4 18 11 21 10 22 -2 7 -8 -10 -17 -15 -20 -11 -4 3 -7 1 -7 -5 0 -7 4 -12 8
-12 11 0 13 -38 2 -45 -4 -2 -7 3 -6 12 0 9 -9 22 -22 29 -19 9 -20 13 -8 17
24 9 19 33 -6 34 -22 2 -22 1 -4 -13 11 -8 15 -14 10 -14 -6 0 -20 10 -32 23
-21 22 -21 23 -1 35 16 11 21 10 27 -5 12 -29 32 -26 31 5 0 24 -1 25 -9 7 -8
-18 -9 -18 -9 -2 -1 11 -5 15 -13 11 -8 -5 -9 -2 -5 9 4 10 1 17 -6 17 -8 0
-6 4 3 10 13 8 12 10 -2 10 -17 0 -23 12 -18 35 1 5 -2 7 -6 3 -4 -4 -13 -3
-20 3 -8 7 -14 7 -19 -1 -3 -5 1 -10 11 -10 15 0 15 -2 1 -23 -12 -19 -13 -24
-2 -24 8 0 11 5 8 10 -3 6 -1 7 5 3 8 -5 10 -1 6 11 -5 15 -4 15 4 3 6 -8 9
-17 6 -21 -2 -4 0 -10 5 -14 12 -7 3 -35 -11 -35 -5 0 -7 4 -4 9 3 5 -1 14 -9
21 -8 7 -15 9 -15 4 0 -4 -5 -3 -12 4 -8 8 -8 15 3 28 8 10 9 15 2 11 -6 -4
-14 -3 -18 3 -4 6 -12 7 -18 4 -7 -4 -9 -4 -5 1 4 4 0 14 -8 22 -8 8 -12 19
-9 24 4 5 -1 9 -10 9 -9 0 -14 3 -12 8 3 4 -1 13 -9 20 -8 7 -14 10 -14 6 0
-4 -16 11 -35 32 -40 43 -41 47 -19 65 15 12 16 11 9 -10 -6 -19 -4 -23 8 -18
8 3 23 -3 32 -13 10 -11 23 -17 29 -14 6 3 0 -3 -14 -15 -24 -19 -19 -21 28
-6 l23 8 -23 21 c-12 11 -25 20 -28 19 -3 -1 -10 3 -17 9 -7 5 -18 6 -24 2 -8
-5 -9 -3 -3 7 15 25 12 36 -10 33 -11 -1 -24 -3 -28 -3 -4 -1 -5 -8 -1 -16 4
-13 0 -15 -22 -11 -35 6 -40 12 -20 20 11 4 14 2 9 -6 -5 -7 -3 -8 5 -4 12 8
7 20 -10 22 -5 1 -11 3 -14 4 -6 3 -22 7 -35 9 -5 0 -9 6 -7 13 1 7 -4 13 -10
14 -7 1 -15 3 -18 4 -3 1 -10 3 -16 4 -6 0 -16 9 -23 18 -7 10 -17 14 -22 10
-4 -4 -2 2 6 12 14 18 13 19 -2 13 -10 -3 -18 -2 -18 3 0 6 6 10 13 10 8 0 7
4 -3 10 -9 6 -10 10 -3 10 6 0 11 8 10 18 -1 12 -10 17 -33 17 -28 1 -31 -2
-21 -15 6 -8 7 -12 3 -8 -5 4 -15 0 -23 -10 -13 -16 -14 -15 -8 6 4 14 2 22
-6 22 -7 0 -9 -3 -6 -7 4 -3 2 -12 -4 -19 -8 -10 -15 -11 -30 -1 -10 6 -19 15
-19 20 0 4 4 6 9 3 5 -4 11 -3 14 1 2 5 2 1 0 -7 -2 -10 2 -8 12 4 8 11 22 21
31 22 9 1 19 6 22 10 4 4 -1 4 -10 1 -10 -4 -18 -2 -18 5 0 6 -6 5 -17 -3 -11
-10 -14 -10 -9 -1 5 8 0 12 -14 12 -13 0 -19 4 -14 12 4 7 3 8 -4 4 -6 -4 -9
-13 -6 -21 4 -8 11 -12 17 -8 6 3 7 1 3 -6 -6 -9 -11 -9 -22 0 -12 10 -17 9
-27 0 -9 -10 -9 -12 2 -9 7 2 15 -3 16 -10 2 -7 1 -8 -2 -2 -2 5 -9 8 -14 4
-5 -3 -16 2 -25 11 -13 12 -14 19 -4 30 7 8 10 21 7 28 -7 18 -70 15 -75 -3
-3 -13 -2 -13 8 0 10 13 11 13 7 -2 -7 -22 3 -30 20 -17 7 6 13 10 14 8 0 -2
2 -17 4 -33 l4 -28 -26 23 c-21 19 -25 20 -20 6 4 -11 3 -16 -4 -12 -6 4 -8
12 -6 19 3 6 -1 20 -9 30 -7 11 -11 23 -7 29 3 6 1 7 -5 3 -8 -5 -8 -15 -1
-33 5 -14 7 -28 4 -31 -3 -3 -5 0 -5 7 0 8 -6 11 -16 7 -14 -5 -15 -4 -4 9 11
13 10 14 -4 9 -9 -3 -16 -9 -16 -13 0 -4 -10 -7 -22 -8 -23 -2 -23 -2 -3 13
11 8 21 19 21 24 3 23 5 24 14 10 8 -13 10 -13 10 2 0 9 -4 20 -10 23 -5 3
-10 2 -10 -3 0 -5 -7 -9 -15 -9 -9 0 -14 5 -12 11 3 8 -10 10 -42 6 -34 -4
-49 -1 -59 10 -8 8 -11 9 -7 3 3 -7 1 -13 -5 -13 -6 0 -8 -5 -4 -12 4 -7 3 -8
-4 -4 -6 4 -8 14 -5 23 4 10 2 14 -4 10 -6 -4 -9 3 -7 18 1 14 -3 25 -9 25 -7
0 -5 5 3 10 8 5 10 10 5 10 -6 0 -11 9 -12 20 -1 13 2 18 10 13 7 -4 6 1 -2
11 -8 9 -21 14 -30 11 -14 -4 -14 -4 -1 8 22 18 22 32 0 52 -15 14 -17 22 -9
37 14 25 7 32 -9 10z m23 -61 c3 -5 2 -12 -3 -15 -5 -3 -9 1 -9 9 0 17 3 19
12 6z m122 -223 c-6 -4 -8 -10 -4 -14 4 -4 14 1 21 12 11 14 11 21 3 26 -9 6
-9 8 0 8 6 0 15 -5 18 -10 4 -6 10 -8 14 -6 4 3 8 -1 8 -9 0 -8 -9 -17 -19
-21 -10 -3 -18 -9 -18 -13 0 -4 -7 -8 -15 -8 -8 0 -15 3 -15 7 0 4 -13 6 -29
5 -21 -1 -28 2 -24 12 4 10 9 11 18 3 10 -8 15 -8 21 1 4 7 3 9 -3 6 -6 -4
-14 0 -17 8 -4 13 -2 14 14 5 16 -9 20 -8 20 7 0 15 2 16 10 3 6 -9 5 -17 -3
-22z m-277 -112 c-17 -17 -11 -29 8 -15 15 13 16 12 4 -3 -8 -10 -20 -14 -29
-11 -12 5 -14 3 -8 -8 6 -11 5 -12 -5 -2 -11 10 -16 9 -27 -5 -12 -16 -13 -16
-6 2 5 14 3 17 -7 11 -7 -4 -26 -9 -41 -11 -25 -3 -28 0 -27 20 1 14 6 22 10
20 5 -3 6 -11 2 -17 -3 -7 0 -5 8 3 7 8 22 16 33 17 18 2 18 1 -2 -9 -13 -6
-23 -15 -23 -19 0 -5 16 0 35 11 37 21 61 27 35 9 -12 -8 -11 -9 5 -6 11 2 19
8 18 13 -1 6 5 11 13 11 10 0 11 -4 4 -11z m307 2 c0 -7 4 -22 8 -33 5 -16 5
-17 -4 -5 -9 13 -11 13 -11 0 0 -11 -3 -10 -11 4 -8 13 -13 15 -19 6 -5 -9 -9
-8 -13 3 -4 11 0 15 13 12 10 -2 21 3 24 11 7 17 13 18 13 2z m65 -17 c-4 -10
-1 -12 9 -5 19 12 49 16 49 6 0 -5 16 -14 35 -22 19 -7 31 -18 28 -23 -4 -6
-1 -7 8 -1 21 12 49 15 49 5 0 -15 -22 -26 -53 -27 -19 0 -26 4 -23 13 3 7 0
15 -6 19 -7 4 -8 3 -4 -4 5 -8 0 -12 -13 -12 -11 0 -23 5 -27 12 -4 7 -3 8 4
4 7 -4 17 -4 24 0 8 5 6 10 -8 15 -12 4 -26 1 -39 -10 -19 -15 -19 -15 -5 3
16 21 17 21 -35 0 -11 -5 -14 -1 -9 12 5 17 4 17 -7 -1 -12 -19 -12 -19 -19 0
-10 26 -7 30 23 30 17 0 23 -4 19 -14z m-553 -27 c-12 -15 -11 -16 9 -10 15 5
22 3 22 -5 0 -7 -3 -9 -7 -6 -3 4 -12 -1 -20 -11 -8 -9 -12 -12 -9 -6 3 7 -1
15 -10 18 -12 4 -15 2 -10 -9 4 -11 -1 -14 -17 -11 -13 2 -28 -6 -39 -18 -9
-12 -17 -17 -18 -12 0 6 -7 1 -15 -10 -8 -10 -14 -14 -13 -8 2 7 -1 12 -7 12
-5 0 -9 -4 -8 -9 2 -4 -4 -6 -12 -3 -9 4 -18 -2 -24 -17 -5 -13 -10 -18 -10
-10 -1 11 -5 10 -16 -5 -14 -18 -14 -18 -8 4 3 12 1 22 -4 22 -5 0 -10 -7 -11
-15 -1 -8 -3 -21 -4 -29 -1 -8 -8 -12 -16 -8 -11 4 -13 1 -7 -9 4 -8 5 -11 1
-7 -5 4 -19 -5 -32 -20 -13 -15 -24 -21 -24 -14 0 6 -5 12 -11 12 -6 0 -9 -7
-6 -15 4 -8 2 -17 -4 -20 -5 -4 -7 -11 -4 -16 4 -5 1 -9 -5 -9 -7 0 -10 7 -7
14 4 10 1 13 -8 9 -8 -3 -13 -9 -10 -13 3 -5 -2 -16 -11 -24 -8 -9 -13 -16 -9
-16 3 0 3 -5 0 -10 -5 -8 -11 -8 -20 0 -9 8 -15 8 -20 0 -3 -5 0 -10 7 -11 10
0 10 -2 0 -6 -6 -2 -10 -9 -6 -14 3 -5 -2 -9 -11 -9 -9 0 -13 -4 -10 -10 4 -6
-1 -7 -11 -3 -10 4 -15 2 -11 -4 10 -16 -23 -55 -42 -49 -12 5 -11 2 3 -9 11
-8 14 -15 7 -15 -7 0 -9 -5 -5 -12 4 -6 3 -8 -3 -5 -6 4 -18 -11 -27 -34 -9
-22 -21 -37 -26 -34 -15 9 -12 27 3 19 6 -4 4 1 -5 12 -21 24 -5 52 19 33 17
-14 17 2 1 21 -11 12 -10 12 5 1 19 -15 24 -2 6 16 -8 8 -5 13 10 18 12 3 18
11 15 17 -4 7 -2 8 5 4 6 -4 8 -12 5 -18 -4 -7 -2 -8 4 -4 8 4 8 15 2 31 -5
14 -6 24 -2 24 21 -4 42 2 42 12 0 5 -5 7 -12 3 -7 -4 -8 -3 -4 5 4 6 12 8 18
5 8 -5 9 -1 5 10 -4 10 -3 15 3 11 5 -3 19 9 31 27 12 18 19 25 16 16 -4 -12
-2 -15 8 -11 11 4 12 10 4 24 -5 11 -6 18 -2 17 4 -2 19 5 33 15 13 9 21 17
17 17 -5 0 -5 5 -2 11 5 7 14 4 28 -8 18 -16 20 -16 14 -1 -7 20 12 48 38 53
11 2 22 4 25 4 3 1 -1 5 -8 10 -10 6 -6 11 17 19 23 8 30 8 25 0 -4 -6 -1 -9
5 -7 7 3 11 7 10 9 -2 3 5 15 16 27 13 15 23 19 30 13 8 -7 19 -2 33 13 12 13
36 24 54 25 18 2 35 7 36 12 2 6 8 10 14 10 6 0 5 -7 -3 -16z m-251 -12 c2 -7
-1 -12 -8 -12 -6 0 -8 5 -4 12 4 7 3 8 -4 4 -6 -4 -9 -13 -5 -21 3 -8 1 -15
-5 -15 -6 0 -12 5 -14 11 -2 6 -14 2 -28 -11 -14 -12 -19 -18 -11 -14 8 4 12
2 10 -5 -3 -7 -8 -12 -12 -11 -5 0 -18 -11 -29 -25 -16 -21 -23 -24 -29 -13
-5 7 -9 10 -10 6 -3 -14 -6 -23 -14 -41 -6 -15 -10 -16 -16 -6 -5 8 -1 21 9
32 9 11 16 22 15 26 -2 3 3 6 10 6 15 0 27 16 20 28 -2 4 -12 2 -21 -5 -15
-12 -16 -11 -3 5 21 27 40 22 35 -10 -3 -15 -2 -25 1 -22 3 4 8 19 11 35 3 16
10 34 15 39 7 7 8 4 3 -9 -7 -19 -7 -19 19 0 14 10 27 22 27 26 0 11 34 2 38
-10z m1177 -138 c-2 -20 1 -23 17 -18 21 6 51 -13 42 -27 -3 -5 1 -9 9 -9 8 0
18 -7 21 -16 3 -8 12 -12 18 -9 7 4 4 -1 -7 -10 l-20 -17 20 6 c11 3 27 1 35
-5 13 -9 12 -10 -2 -5 -10 3 -20 0 -24 -6 -4 -7 -3 -8 4 -4 7 4 12 2 12 -3 0
-6 3 -10 8 -10 22 4 32 -3 32 -21 0 -14 6 -20 17 -18 17 3 19 -1 22 -38 0 -8
5 -13 10 -9 11 6 45 -25 36 -33 -3 -4 -10 0 -15 8 -8 13 -10 12 -10 -2 0 -10
4 -18 10 -18 5 0 7 -6 4 -14 -7 -18 12 -30 22 -15 5 8 3 9 -6 4 -9 -5 -11 -4
-6 4 6 9 11 9 22 0 8 -6 12 -14 9 -17 -2 -3 5 -21 17 -41 13 -20 22 -38 21
-41 0 -3 2 -4 6 -3 4 1 7 -7 7 -17 0 -13 -4 -16 -12 -9 -8 7 -10 1 -8 -18 2
-16 1 -20 -2 -10 -3 9 -9 15 -13 13 -4 -3 -8 4 -8 15 -1 10 2 19 7 19 4 0 7 8
5 18 -2 9 -4 20 -4 25 -1 4 -5 7 -10 7 -5 0 -7 -9 -4 -20 3 -11 1 -20 -4 -20
-6 0 -9 12 -7 26 2 20 -1 24 -13 20 -13 -5 -14 -4 -3 9 10 12 10 15 -3 15 -9
0 -19 9 -22 20 -4 12 -11 17 -18 14 -7 -4 -9 -4 -5 1 4 4 3 14 -2 21 -6 6 -9
18 -8 25 2 7 -3 13 -10 14 -15 0 -33 26 -26 37 3 4 -2 8 -11 8 -12 0 -15 5 -9
22 6 21 5 22 -11 8 -11 -9 -16 -10 -11 -2 4 6 3 12 -2 12 -5 0 -29 19 -52 43
-24 23 -47 41 -52 39 -5 -1 -7 2 -4 7 6 10 -22 26 -39 22 -5 -2 -7 1 -3 5 4 4
3 13 -3 21 -9 10 -8 13 5 13 10 0 14 4 11 10 -3 5 0 7 9 4 8 -3 13 -16 11 -30z
m400 -333 c9 -16 -9 -20 -23 -5 -10 12 -10 14 2 14 8 0 17 -4 21 -9z m-1909
-30 c8 7 14 7 19 -1 11 -18 -26 -24 -41 -6 -8 9 -9 12 -2 6 7 -6 16 -6 24 1z
m1960 -40 c10 8 14 8 14 0 0 -6 -4 -11 -10 -11 -16 0 -12 -32 7 -52 22 -24 5
-42 -21 -22 -11 8 -15 14 -10 14 6 0 15 -5 22 -12 9 -9 12 -9 12 -1 0 7 -9 18
-20 26 -11 8 -17 17 -13 20 3 4 0 7 -8 7 -9 0 -15 11 -15 31 -2 29 -1 30 13 9
12 -17 18 -19 29 -9z m-1955 9 c6 0 7 -5 4 -11 -4 -6 -13 -8 -21 -5 -8 3 -11
0 -8 -9 3 -8 12 -11 22 -7 14 5 15 4 2 -10 -8 -9 -17 -12 -18 -7 -2 5 -8 7
-12 4 -5 -3 -7 -12 -4 -19 8 -22 -9 -25 -29 -6 -18 17 -18 18 0 17 10 -1 17 4
15 11 -1 8 2 11 8 7 7 -4 9 3 6 20 -4 21 -2 25 10 21 9 -3 20 -6 25 -6z m1849
-44 c0 -3 -4 -8 -10 -11 -5 -3 -10 -1 -10 4 0 6 5 11 10 11 6 0 10 -2 10 -4z
m17 -28 c-2 -7 -9 -12 -14 -11 -5 1 -10 -4 -10 -12 0 -10 5 -11 19 -4 16 8 17
7 8 -15 -7 -20 -6 -26 8 -29 12 -3 10 -5 -6 -6 -13 0 -20 -5 -17 -11 4 -6 12
-7 18 -4 7 4 9 4 5 -1 -4 -4 3 -16 15 -27 l22 -19 -25 15 c-14 8 -29 15 -35
16 -5 0 -11 5 -11 10 -1 6 -3 11 -4 13 -8 8 -5 83 4 89 17 12 28 9 23 -4z
m-1914 -22 c16 -12 16 -14 2 -20 -10 -4 -13 -11 -8 -18 11 -18 13 -37 4 -43
-4 -2 -8 1 -9 8 0 7 -5 29 -10 50 -11 40 -7 44 21 23z m-156 -31 c0 -8 -4 -12
-9 -9 -5 3 -6 10 -3 15 9 13 12 11 12 -6z m133 -35 c0 -5 -5 -10 -11 -10 -5 0
-7 5 -4 10 3 6 8 10 11 10 2 0 4 -4 4 -10z m-10 -30 c0 7 3 10 6 7 4 -4 2 -13
-4 -20 -7 -8 -9 -17 -5 -21 4 -4 -1 -4 -11 0 -14 5 -17 4 -12 -4 4 -7 13 -12
20 -12 6 0 12 -11 12 -25 0 -14 -6 -25 -12 -25 -7 0 -15 -4 -18 -9 -3 -5 2 -8
11 -7 23 1 24 -46 1 -50 -11 -1 -15 4 -13 17 2 10 0 19 -5 19 -4 0 -7 11 -6
24 0 13 6 22 12 19 7 -2 15 1 19 7 3 6 1 9 -5 8 -19 -5 -33 42 -15 48 11 5 12
11 4 27 -10 21 -10 21 5 3 11 -13 16 -15 16 -6z m1966 -25 c12 -8 23 -12 26
-10 2 2 1 -23 -2 -55 -3 -33 -10 -64 -16 -70 -14 -14 -15 20 -1 38 7 9 5 11
-9 6 -18 -7 -18 -7 0 15 14 15 15 20 5 16 -11 -4 -15 1 -15 19 0 14 4 22 8 20
4 -3 8 -1 8 4 0 5 -10 14 -22 20 -13 6 -18 11 -13 11 6 1 20 -6 31 -14z m137
-30 c-6 -17 -23 -20 -23 -5 0 6 5 10 11 10 5 0 7 5 3 12 -4 7 -3 8 4 4 6 -4 9
-13 5 -21z m-2216 -50 c0 -20 -4 -19 -17 5 -8 15 -8 18 3 14 8 -3 14 -11 14
-19z m-39 -120 c0 -25 -12 -33 -23 -16 -3 5 -1 12 5 16 6 4 8 11 5 16 -4 5 -2
9 3 9 5 0 10 -11 10 -25z m2247 -45 c-3 -5 -11 -10 -16 -10 -6 0 -7 5 -4 10 3
6 11 10 16 10 6 0 7 -4 4 -10z m-2110 -9 c-3 -5 2 -17 11 -25 11 -12 12 -16 2
-16 -10 0 -10 -2 1 -9 11 -7 9 -10 -8 -16 -12 -3 -18 -11 -15 -17 4 -6 10 -5
15 3 10 17 10 18 13 -55 2 -40 0 -53 -6 -42 -5 9 -14 13 -20 10 -7 -4 -8 -2
-4 4 4 7 1 12 -6 13 -10 0 -10 2 0 6 6 2 9 10 5 16 -10 17 -11 111 0 125 11
14 21 17 12 3z m1999 -16 c-4 -9 0 -15 7 -15 11 0 11 -3 -1 -10 -22 -14 -37
-12 -37 5 0 8 4 12 9 9 4 -3 8 2 8 10 0 9 4 16 10 16 5 0 7 -7 4 -15z m111
-15 c-3 -5 -1 -11 5 -15 6 -4 5 -13 -2 -25 -9 -14 -14 -16 -20 -7 -4 7 -8 17
-8 22 0 6 5 3 10 -5 8 -13 10 -13 10 2 0 9 -5 20 -10 23 -6 4 -8 11 -4 16 3 5
10 7 15 3 5 -3 7 -9 4 -14z m-104 -27 c-11 -5 -11 -7 0 -14 10 -6 10 -9 2 -9
-7 0 -10 -7 -6 -16 3 -9 0 -20 -8 -25 -10 -6 -10 -9 -1 -9 6 0 12 -5 12 -11 0
-8 -4 -9 -13 0 -8 6 -18 7 -22 3 -5 -4 -4 0 0 8 14 23 15 61 2 54 -7 -3 -3 2
7 10 11 9 25 16 30 15 6 0 5 -3 -3 -6z m75 -48 c1 -8 -5 -20 -14 -27 -15 -11
-15 -11 -6 2 6 8 10 23 8 33 -1 11 0 16 4 13 3 -4 7 -13 8 -21z m-2156 -33 c0
-4 -10 -13 -22 -21 -23 -14 -23 -14 -4 8 20 22 26 25 26 13z m2047 -23 c-12
-7 -15 -15 -8 -26 11 -21 2 -55 -13 -46 -6 3 -3 -2 6 -13 23 -26 9 -52 -18
-34 -15 9 -16 10 -2 6 12 -3 15 -1 11 9 -3 8 -9 13 -13 10 -17 -11 -2 28 16
42 18 14 18 15 -6 8 -17 -4 -21 -3 -12 3 8 5 14 13 14 17 0 4 -6 12 -14 17
-10 7 -9 8 5 4 9 -3 17 -1 17 4 0 6 8 10 18 10 16 -1 16 -1 -1 -11z m23 -13
c0 -3 -4 -8 -10 -11 -5 -3 -10 -1 -10 4 0 6 5 11 10 11 6 0 10 -2 10 -4z
m-1939 -29 c-7 -7 -7 -15 2 -26 9 -12 9 -13 0 -7 -7 4 -13 2 -13 -3 0 -6 6
-11 13 -11 6 -1 1 -7 -12 -14 -15 -8 -20 -16 -12 -20 6 -4 11 -3 11 2 0 5 8 9
17 9 16 0 16 -1 1 -11 -14 -9 -12 -13 15 -34 18 -14 24 -22 15 -19 -10 3 -20
2 -23 -4 -4 -5 -3 -9 2 -8 29 5 35 -3 13 -16 l-25 -15 28 4 c32 6 35 -4 6 -22
-12 -8 -18 -9 -15 -4 3 6 0 12 -8 15 -9 4 -12 17 -9 42 3 34 2 36 -19 31 -13
-3 -17 -3 -10 0 10 5 10 10 -3 24 -12 13 -13 20 -5 25 9 6 9 10 -1 16 -10 6
-11 9 -1 9 6 0 12 8 12 18 0 14 -2 15 -10 2 -5 -8 -10 -10 -10 -4 0 15 18 31
36 31 10 0 11 -4 5 -10z m1889 -103 c0 -2 -9 0 -20 6 -11 6 -20 13 -20 16 0 2
9 0 20 -6 11 -6 20 -13 20 -16z m-5 -24 c3 -6 -1 -13 -9 -16 -9 -3 -14 -10
-11 -14 3 -4 -2 -13 -10 -20 -8 -7 -12 -17 -8 -23 4 -6 1 -7 -7 -2 -10 6 -12
4 -7 -8 3 -9 2 -19 -4 -22 -5 -4 -7 -10 -4 -15 3 -4 -3 -7 -12 -6 -17 3 -33
-10 -33 -28 0 -5 7 -3 15 4 13 11 14 9 0 -16 -8 -16 -20 -29 -27 -29 -7 0 -13
-7 -13 -15 -1 -19 -24 -60 -25 -42 0 6 -5 12 -11 12 -6 0 -9 -7 -6 -14 4 -10
1 -13 -7 -10 -8 3 -17 0 -21 -6 -3 -6 -3 -9 2 -8 4 2 9 -1 11 -7 1 -5 -4 -10
-10 -10 -7 0 -12 -8 -12 -17 1 -12 -5 -15 -24 -12 -22 4 -24 3 -12 -11 7 -8
10 -18 6 -22 -3 -3 -6 -1 -6 5 0 7 -6 12 -14 12 -8 0 -18 5 -22 12 -4 7 -3 8
5 4 6 -4 14 0 17 9 4 9 12 14 20 11 8 -3 11 2 9 16 -3 11 -2 18 1 15 6 -6 54
36 54 47 0 14 28 35 35 28 5 -4 5 1 2 11 -5 12 -3 16 5 11 8 -5 9 -2 5 9 -3
10 -2 17 4 17 6 0 8 4 4 9 -7 12 29 33 39 24 3 -3 6 -1 6 5 0 5 -5 12 -12 14
-8 3 -8 9 1 24 12 18 12 18 7 0 -6 -16 -4 -17 9 -6 12 10 13 16 4 26 -8 10 -8
14 0 14 6 0 11 -5 11 -11 0 -5 5 -7 10 -4 8 5 8 11 0 20 -8 9 -6 15 7 20 10 5
22 7 26 6 5 -1 6 3 2 9 -5 8 -11 8 -20 0 -9 -8 -15 -8 -20 0 -3 5 -1 10 5 10
6 0 8 5 4 11 -5 8 -1 8 14 0 12 -6 24 -16 27 -21z m-1804 -91 c10 -19 8 -20
-13 -15 -12 3 -17 3 -10 0 6 -3 10 -10 7 -15 -4 -5 2 -6 11 -2 13 5 15 3 9 -7
-6 -10 -4 -12 9 -7 14 6 15 4 5 -16 -11 -20 -11 -21 5 -8 9 8 19 11 23 7 3 -3
1 -6 -6 -6 -7 0 -9 -5 -6 -10 4 -6 12 -7 18 -3 7 4 6 -1 -2 -10 -12 -15 -12
-17 2 -11 11 4 20 -2 28 -20 7 -14 17 -26 22 -26 5 0 4 -6 -2 -14 -10 -12 -9
-14 6 -10 15 4 19 0 19 -20 0 -14 -6 -28 -13 -30 -11 -5 -11 -1 -2 16 10 19 9
20 -11 15 -12 -3 -19 -3 -16 0 3 4 0 13 -7 21 -9 13 -9 14 1 8 7 -4 12 -2 12
5 0 6 -8 9 -20 6 -11 -3 -18 -1 -15 3 3 5 -2 15 -10 23 -8 9 -15 22 -15 29 0
10 -3 9 -10 -2 -8 -13 -10 -13 -11 3 -3 38 -5 42 -22 41 -10 -1 -16 0 -13 3 3
3 1 14 -4 24 -7 12 -7 20 0 24 6 4 8 11 5 16 -4 5 -2 9 4 9 6 0 15 -9 22 -21z
m1826 -81 c1 -17 -3 -25 -12 -24 -19 3 -32 16 -16 16 8 0 9 5 1 19 -8 16 -7
19 7 17 11 -2 18 -13 20 -28z m-1665 -131 c8 4 9 0 5 -11 -6 -14 -3 -17 8 -12
11 4 14 2 9 -6 -5 -8 -2 -9 9 -5 10 4 16 2 14 -6 -1 -7 4 -11 11 -9 10 2 10
-2 2 -19 -11 -19 -10 -20 9 -9 17 8 21 8 19 -2 -2 -7 2 -12 9 -11 8 2 10 -4 6
-14 -4 -11 -8 -13 -11 -5 -2 7 -14 12 -27 12 -12 0 -26 7 -29 16 -3 9 -11 12
-18 8 -7 -4 -10 -4 -6 1 4 4 3 16 -3 27 -8 14 -14 16 -23 9 -10 -8 -12 -3 -10
22 3 41 5 46 11 24 2 -9 9 -14 15 -10z m1373 -45 c6 -4 11 -13 13 -21 3 -12 1
-12 -15 -1 -10 8 -15 10 -11 6 11 -13 -11 -36 -33 -36 -13 0 -17 -6 -14 -21 3
-12 2 -19 -2 -16 -8 9 -65 -22 -58 -33 3 -5 0 -12 -6 -16 -8 -4 -9 -3 -5 4 4
7 2 12 -3 12 -6 0 -11 -4 -11 -9 0 -5 -9 -7 -20 -4 -14 4 -20 0 -20 -12 0 -9
-9 -19 -20 -22 -11 -3 -17 -10 -13 -17 3 -6 -3 -3 -14 7 -20 18 -38 23 -29 8
10 -16 -20 -43 -50 -43 -46 -1 -74 -8 -74 -19 0 -6 6 -7 13 -3 7 4 9 3 4 -2
-5 -5 -13 -10 -18 -10 -5 -1 -10 -3 -11 -4 -7 -6 -87 -6 -83 0 3 4 -3 7 -12 6
-9 0 -18 5 -20 12 -3 7 1 10 11 6 10 -4 16 -1 16 7 0 11 3 11 11 -1 9 -13 11
-13 16 -1 4 10 9 8 20 -10 l14 -24 -6 25 c-4 14 -3 20 2 15 10 -13 22 -13 51
3 12 7 20 17 17 22 -3 5 0 12 6 16 8 5 9 3 4 -6 -6 -10 -2 -12 15 -7 13 3 29
2 36 -4 8 -7 15 -6 20 2 5 8 3 9 -7 4 -11 -7 -12 -6 -2 7 7 8 11 18 8 21 -3 4
-2 5 2 2 3 -3 16 2 29 10 20 13 23 12 29 -3 5 -15 9 -14 25 8 10 13 17 27 14
31 -2 4 3 10 12 13 12 4 15 2 10 -9 -10 -27 10 -16 22 13 10 24 11 24 5 2 -5
-22 -4 -23 11 -11 9 8 14 21 11 31 -4 13 0 17 17 16 13 0 22 4 21 11 -2 7 8
15 22 19 14 3 25 12 25 20 0 15 10 18 25 6z m-1252 -77 c4 -8 3 -16 -1 -19 -4
-3 -9 4 -9 15 -2 23 3 25 10 4z m1044 -67 c-3 -8 -6 -5 -6 6 -1 11 2 17 5 13
3 -3 4 -12 1 -19z m-857 -32 c0 -5 -3 -6 -6 -3 -4 3 -16 2 -27 -4 -14 -8 -18
-8 -13 0 4 6 1 11 -7 11 -8 0 -18 8 -22 18 -5 14 -4 15 6 5 18 -18 34 -16 19
2 -10 13 -6 12 18 -2 18 -10 32 -22 32 -27z m1113 29 c-3 -9 -8 -14 -10 -11
-3 3 -2 9 2 15 9 16 15 13 8 -4z m-1390 -45 c3 -11 1 -18 -4 -14 -5 3 -9 12
-9 20 0 20 7 17 13 -6z m309 11 c7 10 8 7 4 -11 -4 -23 -4 -23 8 -7 13 16 14
16 27 0 12 -15 12 -16 -2 -11 -9 4 -22 1 -28 -5 -8 -8 -15 -6 -27 9 -8 10 -13
14 -10 7 8 -15 -10 -27 -19 -12 -4 5 1 16 11 24 12 9 20 10 23 3 2 -6 7 -5 13
3z m-265 -19 c-10 -10 -14 -23 -10 -28 4 -5 1 -3 -7 3 -12 11 -11 15 6 28 26
20 30 19 11 -3z m111 -28 c6 3 14 1 18 -6 4 -7 3 -9 -1 -5 -5 4 -14 -1 -20
-12 -7 -15 -14 -18 -25 -11 -11 7 -12 10 -2 10 9 0 11 7 7 23 -4 15 -4 18 3 8
5 -7 14 -11 20 -7z m248 0 c-3 -7 1 -15 8 -17 10 -4 12 1 8 16 -5 21 -4 21 16
-3 12 -14 21 -19 22 -12 0 6 -4 12 -10 12 -5 0 -10 5 -10 11 0 6 5 7 13 2 19
-12 37 -12 37 -1 0 5 7 2 16 -6 8 -9 13 -20 9 -26 -3 -6 1 -7 9 -4 9 3 16 2
16 -4 0 -12 -18 -10 -47 6 -13 7 -23 9 -23 3 0 -5 -16 -9 -35 -8 -19 1 -35 7
-35 12 0 6 -5 3 -10 -5 -7 -11 -10 -11 -10 -2 0 7 -4 11 -9 8 -7 -5 -8 15 -2
31 1 1 10 1 21 0 12 -1 18 -7 16 -13z m418 -21 c5 -13 4 -14 -8 -4 -10 8 -16
9 -21 1 -3 -5 -1 -10 6 -10 7 0 9 -3 6 -6 -8 -8 -38 16 -33 25 9 13 45 9 50
-6z m-247 1 c-3 -3 -12 -4 -19 -1 -8 3 -5 6 6 6 11 1 17 -2 13 -5z m600 -9 c0
-8 -4 -15 -9 -15 -5 0 -7 -4 -4 -9 3 -4 -7 -19 -22 -32 -14 -13 -20 -16 -13
-6 10 12 10 17 2 17 -7 0 -10 3 -8 8 3 4 -7 8 -21 9 l-27 1 25 -15 c14 -8 17
-12 8 -9 -10 3 -21 -2 -27 -12 -9 -16 -11 -16 -26 -1 -12 11 -13 19 -6 23 6 4
11 0 11 -9 0 -9 5 -13 11 -10 6 4 8 12 6 19 -3 6 1 20 9 31 8 10 14 14 14 9 0
-6 14 -11 30 -11 18 0 30 6 30 14 0 7 4 13 8 13 5 0 9 -7 9 -15z m-407 -10 c7
-9 10 -18 6 -22 -3 -3 -6 -2 -6 3 0 12 -39 12 -60 1 -8 -5 -4 1 9 12 28 25 35
26 51 6z m-200 -9 c0 -3 -4 -8 -10 -11 -5 -3 -10 -1 -10 4 0 6 5 11 10 11 6 0
10 -2 10 -4z m30 0 c0 -3 -4 -8 -10 -11 -5 -3 -10 -1 -10 4 0 6 5 11 10 11 6
0 10 -2 10 -4z m377 -23 c-4 -3 -2 -12 3 -18 16 -19 -15 -26 -37 -9 -17 14
-16 14 6 3 20 -10 23 -9 18 4 -5 14 0 27 11 27 3 0 2 -3 -1 -7z m-654 -58 c-3
-9 -8 -14 -10 -11 -3 3 -2 9 2 15 9 16 15 13 8 -4z m707 11 c0 -2 -8 -10 -17
-17 -16 -13 -17 -12 -4 4 13 16 21 21 21 13z m-390 -16 c0 -5 -2 -10 -4 -10
-3 0 -8 5 -11 10 -3 6 -1 10 4 10 6 0 11 -4 11 -10z m216 -39 c2 -8 1 -8 -3 0
-4 8 -7 8 -13 -1 -5 -9 -9 -8 -13 3 -4 10 0 14 11 13 9 -2 17 -8 18 -15z"/>
<path d="M1680 2090 c-9 -6 -10 -10 -3 -10 6 0 15 5 18 10 8 12 4 12 -15 0z"/>
<path d="M877 2072 c-13 -14 -14 -19 -3 -19 7 0 18 9 25 19 6 10 7 18 3 18 -5
0 -16 -8 -25 -18z"/>
<path d="M826 2053 c-6 -14 -5 -15 5 -6 7 7 10 15 7 18 -3 3 -9 -2 -12 -12z"/>
<path d="M626 1912 c-3 -5 1 -9 9 -9 8 0 12 4 9 9 -3 4 -7 8 -9 8 -2 0 -6 -4
-9 -8z"/>
<path d="M414 1669 c-4 -7 -3 -9 4 -5 5 3 13 0 15 -6 4 -9 6 -10 6 -1 1 17
-16 25 -25 12z"/>
<path d="M1938 1932 c8 -5 14 -13 14 -18 0 -5 8 -17 19 -27 10 -10 19 -13 19
-8 0 6 -9 15 -20 21 -11 6 -19 16 -17 22 1 6 -5 13 -13 15 -12 4 -12 3 -2 -5z"/>
<path d="M2076 1767 c3 -10 9 -15 12 -12 3 3 0 11 -7 18 -10 9 -11 8 -5 -6z"/>
<path d="M2115 1729 c-4 -6 -5 -12 -2 -15 2 -3 7 2 10 11 7 17 1 20 -8 4z"/>
<path d="M2285 1320 c-3 -5 -1 -10 4 -10 6 0 11 5 11 10 0 6 -2 10 -4 10 -3 0
-8 -4 -11 -10z"/>
<path d="M309 988 c-6 -20 -6 -39 0 -42 4 -3 7 6 7 20 0 20 -4 32 -7 22z"/>
<path d="M2090 550 c0 -5 5 -10 11 -10 5 0 7 5 4 10 -3 6 -8 10 -11 10 -2 0
-4 -4 -4 -10z"/>
<path d="M496 555 c4 -8 8 -15 10 -15 2 0 4 7 4 15 0 8 -4 15 -10 15 -5 0 -7
-7 -4 -15z"/>
<path d="M620 416 c0 -2 7 -9 15 -16 9 -7 15 -8 15 -2 0 5 -7 12 -15 16 -8 3
-15 4 -15 2z"/>
<path d="M1940 390 c-9 -6 -10 -10 -3 -10 6 0 15 5 18 10 8 12 4 12 -15 0z"/>
<path d="M1650 220 c0 -5 5 -10 11 -10 5 0 7 5 4 10 -3 6 -8 10 -11 10 -2 0
-4 -4 -4 -10z"/>
<path d="M1005 190 c3 -5 8 -10 11 -10 2 0 4 5 4 10 0 6 -5 10 -11 10 -5 0 -7
-4 -4 -10z"/>
<path d="M1075 2300 c-10 -11 -22 -17 -28 -13 -6 3 -7 1 -3 -5 10 -17 19 -14
39 13 22 30 17 33 -8 5z"/>
<path d="M1114 2313 c3 -3 -3 -13 -12 -22 -10 -9 -16 -15 -13 -14 2 2 10 -2
18 -8 7 -6 13 -10 14 -8 0 2 2 12 4 22 2 11 7 22 11 25 4 4 4 -1 1 -10 -4 -10
-2 -18 5 -18 7 0 6 -5 -2 -15 -9 -10 -9 -15 -1 -15 6 0 12 5 12 10 1 6 2 15 3
20 0 6 7 15 15 19 9 6 10 11 2 15 -6 4 -11 2 -11 -4 0 -6 -5 -8 -12 -3 -15 9
-42 14 -34 6z"/>
<path d="M1662 2264 c4 -4 3 -15 -3 -25 -13 -24 -8 -24 13 0 15 18 15 20 0 26
-9 3 -13 3 -10 -1z"/>
<path d="M970 2224 c0 -8 5 -12 10 -9 6 4 8 11 5 16 -9 14 -15 11 -15 -7z"/>
<path d="M811 2176 c7 -15 15 -23 17 -16 3 7 -3 19 -13 28 -15 16 -16 15 -4
-12z"/>
<path d="M1866 2132 c1 -15 2 -30 3 -34 1 -5 9 -8 18 -8 15 0 14 2 -3 15 -17
13 -16 14 14 4 17 -6 35 -15 38 -20 3 -5 -2 -6 -10 -3 -9 3 -16 2 -16 -3 0 -5
6 -10 13 -10 6 0 20 -4 30 -8 10 -4 17 -3 17 5 0 6 -4 9 -9 5 -6 -3 -8 3 -6
15 2 11 -1 23 -7 26 -7 4 -8 2 -4 -4 9 -14 -4 -15 -24 -2 -10 6 -11 10 -2 10
6 0 12 5 12 11 0 5 -4 8 -9 5 -5 -4 -11 -2 -13 4 -2 6 -12 12 -24 14 -17 4
-20 0 -18 -22z m33 -5 c0 -9 -2 -8 -6 1 -2 6 -10 9 -15 6 -7 -4 -8 -2 -4 5 9
13 26 5 25 -12z"/>
<path d="M1980 2075 c21 -22 22 -25 5 -25 -28 0 -9 -13 25 -17 16 -1 30 2 30
7 0 6 -7 10 -16 10 -13 0 -14 3 -5 13 8 11 6 13 -12 13 -13 -1 -21 4 -19 12 1
6 -6 12 -15 12 -14 0 -12 -4 7 -25z"/>
<path d="M476 1975 c-3 -9 -11 -13 -16 -10 -6 4 -10 3 -9 -2 3 -19 -2 -43 -8
-42 -5 1 -15 1 -23 0 -13 -1 -13 -3 0 -10 8 -6 17 -8 20 -6 4 2 7 -2 7 -10 0
-10 -5 -11 -18 -4 -23 12 -50 12 -30 0 17 -11 5 -32 -14 -24 -15 5 -17 -2 -18
-55 0 -12 -2 -20 -6 -16 -3 3 -6 10 -6 15 0 5 -4 8 -10 7 -5 -2 -8 -10 -7 -17
2 -8 -4 -21 -13 -28 -11 -7 -15 -19 -11 -29 5 -14 4 -15 -8 -5 -18 15 -30 -13
-16 -39 7 -13 6 -20 -3 -23 -6 -3 -2 -4 10 -4 12 1 20 4 17 8 -2 4 3 12 11 19
7 6 11 18 8 26 -3 9 6 28 23 45 15 16 24 29 21 29 -4 0 -3 10 4 21 9 17 8 20
-2 14 -7 -5 -10 -4 -5 3 4 6 14 8 23 5 11 -4 13 -8 5 -11 -7 -2 -12 -8 -12
-14 0 -7 5 -6 14 1 8 7 13 21 11 31 -3 13 5 19 28 24 23 5 28 9 18 15 -9 6
-10 11 -2 15 6 4 9 12 6 17 -3 5 2 6 11 2 12 -4 15 -2 12 8 -3 8 -11 13 -17
11 -7 -1 -10 2 -6 8 8 13 11 13 30 -6 23 -23 25 -14 5 19 -14 23 -19 25 -24
12z m-116 -188 c0 -2 -10 -12 -22 -23 l-23 -19 19 23 c18 21 26 27 26 19z
m-30 -71 c0 -2 -8 -10 -17 -17 -16 -13 -17 -12 -4 4 13 16 21 21 21 13z"/>
<path d="M2066 1961 c-3 -5 1 -14 9 -21 12 -10 15 -10 15 3 0 19 -16 31 -24
18z"/>
<path d="M2123 1907 c-3 -6 -1 -7 6 -3 11 7 33 -32 25 -45 -2 -3 9 -17 24 -30
15 -13 24 -20 20 -15 -10 12 10 36 25 32 7 -1 9 -1 4 1 -4 3 -5 9 -2 14 7 10
-24 1 -42 -13 -6 -5 -14 -5 -17 0 -3 6 1 12 9 16 15 5 21 45 8 47 -35 6 -54 5
-60 -4z m52 -15 c-3 -3 -11 0 -18 7 -9 10 -8 11 6 5 10 -3 15 -9 12 -12z"/>
<path d="M2406 1482 c-3 -5 1 -9 9 -9 8 0 12 4 9 9 -3 4 -7 8 -9 8 -2 0 -6 -4
-9 -8z"/>
<path d="M2398 1452 c11 -7 10 -11 -4 -16 -12 -5 -14 -10 -6 -18 6 -6 8 -16 6
-22 -2 -6 6 -12 19 -12 18 -1 23 3 22 18 -1 11 -7 23 -14 27 -7 5 -12 12 -11
17 1 5 -4 10 -12 12 -11 3 -11 2 0 -6z"/>
<path d="M137 1284 c-8 -9 11 -44 24 -44 6 0 3 7 -5 16 -9 8 -14 20 -11 25 7
10 1 12 -8 3z"/>
<path d="M2442 1244 c10 -10 20 -16 22 -13 3 3 -5 11 -17 18 -21 13 -21 12 -5
-5z"/>
<path d="M2446 1118 c10 -14 21 -24 23 -22 3 3 -6 15 -18 27 l-24 22 19 -27z"/>
<path d="M141 1034 c0 -11 3 -14 6 -6 3 7 2 16 -1 19 -3 4 -6 -2 -5 -13z"/>
<path d="M168 1039 c9 -12 8 -20 -4 -37 -13 -19 -13 -21 0 -16 23 9 28 36 9
53 -15 14 -16 14 -5 0z"/>
<path d="M163 884 c0 -8 7 -14 16 -15 10 0 12 -2 4 -6 -10 -3 -10 -8 1 -19 19
-18 21 -18 23 4 1 9 -9 25 -21 34 -18 13 -23 14 -23 2z"/>
<path d="M2365 826 c-22 -13 -33 -40 -14 -34 7 2 19 14 27 26 16 25 15 25 -13
8z"/>
<path d="M210 810 c-6 -11 -7 -20 -3 -20 5 0 14 9 21 20 7 11 8 20 2 20 -5 0
-14 -9 -20 -20z"/>
<path d="M2377 802 c-10 -10 -14 -22 -10 -27 5 -4 -2 -4 -14 -1 -12 4 -24 2
-28 -3 -4 -7 1 -8 11 -4 12 4 15 3 10 -5 -6 -10 7 -17 17 -9 2 1 12 -5 23 -13
15 -11 16 -11 7 0 -15 16 -17 34 -4 25 5 -3 13 0 17 6 4 7 3 9 -4 5 -6 -3 -13
-2 -17 4 -3 5 -2 10 3 10 5 0 9 7 9 15 0 19 0 19 -20 -3z"/>
<path d="M210 750 c5 -16 5 -32 2 -36 -4 -5 0 -3 8 2 8 6 22 14 30 18 8 3 5 4
-7 2 -13 -2 -23 0 -23 5 0 5 7 9 15 9 25 0 17 25 -9 26 -22 2 -23 -1 -16 -26z"/>
<path d="M2326 725 c-11 -8 -16 -18 -11 -22 4 -5 10 -3 12 4 2 7 10 11 16 9 7
-1 9 -1 4 1 -4 3 -5 9 -1 14 7 12 2 11 -20 -6z"/>
<path d="M2213 544 c0 -16 13 -19 21 -5 3 5 0 11 -7 14 -8 3 -14 -1 -14 -9z"/>
<path d="M2184 470 c1 -18 -4 -25 -19 -25 -11 0 -20 -7 -20 -15 0 -8 -7 -15
-15 -15 -8 0 -17 -11 -18 -25 -2 -14 -1 -22 4 -18 4 4 13 3 21 -4 11 -9 12 -7
7 8 -4 10 -4 16 1 12 13 -12 35 12 28 29 -4 11 -2 14 5 9 7 -4 12 -1 12 9 0 9
4 14 8 11 13 -8 35 11 37 31 1 13 -6 18 -25 18 -22 0 -27 -4 -26 -25z m-19
-68 c-10 -11 -35 -10 -42 0 -3 6 -1 8 5 4 6 -3 13 -2 17 4 4 6 11 8 16 4 6 -3
8 -9 4 -12z"/>
<path d="M489 408 c-9 -35 -2 -79 10 -60 4 6 11 5 18 -3 10 -10 9 -14 -3 -19
-8 -3 -13 -2 -10 3 4 5 -3 7 -14 4 -25 -7 -23 -10 12 -17 34 -6 43 16 17 40
-11 10 -17 24 -15 31 3 7 1 15 -4 18 -6 4 -10 5 -11 3z"/>
<path d="M2075 369 c-4 -6 -5 -12 -2 -15 2 -3 7 2 10 11 7 17 1 20 -8 4z"/>
<path d="M530 305 c-23 -13 -23 -14 -4 -15 11 0 25 5 30 10 7 7 11 6 11 -4 0
-8 -4 -13 -9 -10 -4 3 -8 0 -8 -5 0 -6 4 -11 9 -11 5 0 12 -8 14 -17 3 -10 4
0 3 21 -3 46 -11 51 -46 31z"/>
<path d="M1924 239 c-3 -5 -11 -6 -17 -2 -7 4 -6 0 2 -10 11 -14 10 -18 -13
-28 -15 -7 -26 -20 -26 -32 0 -19 0 -19 18 0 9 10 13 13 8 6 -12 -18 2 -16 20
2 9 9 11 15 4 15 -6 0 -8 5 -5 10 4 7 13 6 27 -1 13 -7 18 -7 14 -1 -3 6 4 12
16 14 21 3 21 4 -9 20 -19 9 -35 12 -39 7z m23 -25 c-9 -9 -28 6 -21 18 4 6
10 6 17 -1 6 -6 8 -13 4 -17z"/>
<path d="M1836 164 c1 -6 -2 -16 -7 -21 -7 -7 -4 -12 8 -15 15 -4 19 0 19 18
0 12 -3 21 -7 18 -4 -2 -9 -1 -12 3 -2 5 -3 3 -1 -3z"/>
<path d="M833 125 c0 -8 4 -12 9 -9 5 3 6 10 3 15 -9 13 -12 11 -12 -6z"/>
<path d="M918 93 c7 -3 16 -2 19 1 4 3 -2 6 -13 5 -11 0 -14 -3 -6 -6z"/>
<path d="M1456 72 c-3 -4 4 -9 15 -9 23 -2 25 3 4 10 -8 4 -16 3 -19 -1z"/>
<path d="M1025 61 c-3 -5 -2 -12 3 -15 5 -3 9 1 9 9 0 17 -3 19 -12 6z"/>
<path d="M1070 66 c0 -2 7 -7 16 -10 8 -3 12 -2 9 4 -6 10 -25 14 -25 6z"/>
<path d="M1150 60 c0 -5 5 -10 11 -10 5 0 7 5 4 10 -3 6 -8 10 -11 10 -2 0 -4
-4 -4 -10z"/>
<path d="M1186 62 c-3 -5 1 -9 9 -9 8 0 15 4 15 9 0 10 -17 10 -24 0z"/>
<path d="M1406 62 c-2 -4 -1 -14 3 -21 6 -10 10 -9 14 3 6 16 -8 32 -17 18z"/>
<path d="M1056 45 c4 -8 11 -15 16 -15 6 0 5 6 -2 15 -7 8 -14 15 -16 15 -2 0
-1 -7 2 -15z"/>
<path d="M1110 41 c0 -5 -10 -13 -22 -17 -19 -6 -20 -7 -4 -16 10 -5 20 -7 24
-4 8 8 14 46 7 46 -3 0 -5 -4 -5 -9z"/>
</g>
</svg>
